<svg width="30" height="33" viewBox="0 0 30 33" fill="none" xmlns="http://www.w3.org/2000/svg">
<path d="M8.28347 19.4176C7.23518 19.7327 6.16713 19.9779 5.08637 20.1515C4.92787 16.1264 2.63938 13.691 3.54774 12.4413C5.22695 10.1297 8.83124 7.54425 12.594 5.37961C11.8525 6.3202 11.7139 7.22514 11.3528 7.46628C10.4075 8.097 8.38587 9.66787 7.36575 11.2879C8.03565 10.6482 10.392 8.30034 12.7755 7.05755C12.1337 8.19468 12.4189 8.63497 11.9096 9.07111C10.485 10.3245 9.23124 11.7596 8.18037 13.3395C8.83984 12.5339 9.60289 11.8191 10.4497 11.2135C10.179 11.7386 10.0229 12.3152 9.99182 12.9052C9.87266 15.2285 9.38525 17.6117 8.28346 19.4176L8.28347 19.4176ZM6.44817 31.0909C5.85397 30.3274 4.5545 30.1347 3.89171 30.8813C3.80275 30.9847 3.74106 31.1087 3.71224 31.242C3.68343 31.3754 3.68839 31.5138 3.72669 31.6447C3.76499 31.7756 3.83542 31.8949 3.93155 31.9917C4.02769 32.0884 4.14649 32.1596 4.27715 32.1988C3.71418 31.6667 4.42782 30.8391 5.14772 31.5016C5.54806 31.8689 5.76379 32.4676 6.47062 32.1532C6.35683 32.1201 6.25658 32.0515 6.18445 31.9574C6.11232 31.8634 6.07208 31.7488 6.06958 31.6303C6.06707 31.5118 6.10244 31.3956 6.17053 31.2986C6.23862 31.2016 6.33588 31.1288 6.44817 31.0909ZM18.0887 25.3471C17.4103 25.7144 16.394 26.6498 14.1362 25.7509C15.1555 26.7429 15.9864 27.2709 16.9993 27.255C18.1291 27.1976 20.1937 26.2622 20.8366 26.0329L18.0887 25.3471ZM8.03096 19.9406C6.86429 20.2642 5.67711 20.5088 4.47752 20.6726C2.94756 20.9224 2.20935 21.2722 1.57254 22.123C0.914142 23.002 0.875234 23.4297 0.944538 23.8281C1.00546 24.1831 1.26323 24.3812 1.31534 24.7631C1.38651 25.038 1.54889 25.2806 1.7759 25.4512C2.00292 25.6218 2.28112 25.7103 2.56497 25.7022C2.50439 25.6805 2.45083 25.6428 2.41005 25.5931C2.36926 25.5433 2.34277 25.4834 2.33341 25.4198C2.32406 25.3561 2.3322 25.2911 2.35695 25.2317C2.38171 25.1724 2.42214 25.1208 2.47393 25.0827C2.6947 24.8994 2.96111 24.7796 3.24468 24.736C3.52826 24.6924 3.81835 24.7266 4.08399 24.835C5.10855 25.5179 5.98814 26.3964 6.67227 27.4201C7.57935 28.7315 6.65907 29.0169 5.78609 28.7209C4.48604 28.2791 3.4736 27.5181 2.91149 27.5116C2.22426 27.5031 1.81255 28.0155 2.23563 28.8123C2.15511 27.9533 3.24922 27.9663 3.18914 28.6395C3.12752 29.3337 2.72388 29.5437 3.43767 30.3505C3.30602 29.7453 3.41623 29.153 4.33523 29.1552C5.25551 29.1579 6.46252 29.6173 7.29944 31.4438C8.84346 31.3812 10.396 30.5864 11.7303 30.1685C10.8794 29.9019 9.94978 29.2645 8.6452 27.8713C11.1812 28.6469 13.7373 30.2822 16.8053 29.1844C19.7478 28.0744 22.7706 27.1905 25.8476 26.5405C24.7889 26.4777 22.8466 26.3203 22.0452 26.2814C20.9508 26.6706 19.8942 27.0631 18.6366 27.4961C17.4762 27.8955 15.932 28.3559 14.4332 26.7754C12.7329 24.9847 9.90319 23.0791 10.4409 21.6309C10.6695 22.1381 11.0094 22.5871 11.4355 22.9448C11.8616 23.3024 12.3628 23.5594 12.9019 23.6966C13.96 24.0446 15.0469 24.298 16.1497 24.454C17.5576 24.6521 17.7423 24.2803 18.1724 23.8589C19.3525 22.701 20.6788 20.4043 21.5508 19.0006C20.0231 19.0975 16.6685 19.0746 15.3507 18.4169C17.12 18.4959 19.1072 18.5636 20.2053 18.5095C21.1935 18.4606 21.542 18.577 21.8498 17.9358C22.0321 17.5457 22.1934 17.1462 22.333 16.739C21.084 16.9866 17.1025 16.9411 16.1493 16.6577C17.0929 16.4235 20.0346 16.4426 20.8188 16.4204C21.6029 16.3977 22.0815 16.3899 22.2716 15.7779C22.4627 15.166 22.5651 14.7899 22.5651 14.7899C21.7823 15.0598 18.8214 15.1443 16.5702 14.945C17.8135 14.7648 20.283 14.6256 21.1982 14.5503C22.1618 14.4711 22.4238 14.4275 22.5485 13.8573C22.6909 13.2056 22.7678 12.8994 22.7678 12.8994C20.8306 13.1438 18.8782 13.2455 16.9261 13.2038C17.8331 13.0072 20.5959 12.7468 21.525 12.5645C22.2912 12.4144 22.5584 12.3442 22.6381 11.724C22.6808 11.3463 22.7819 10.9775 22.9378 10.6308C21.2955 10.8641 17.7413 11.4533 17.265 11.608C18.1747 10.8831 20.4023 10.6381 21.4214 10.426C22.3735 10.228 22.577 10.3295 22.8337 9.60381C22.9441 9.2683 23.0859 8.94396 23.2573 8.63511C21.5012 8.90958 19.7712 9.33091 18.0856 9.89468C18.6651 9.24649 21.0481 8.60841 21.9868 8.47618C23.745 8.22822 22.9903 7.84037 23.9229 6.62824C22.1941 6.80298 20.5135 7.30117 18.9688 8.09685C19.6762 7.17642 21.5464 6.64373 22.8533 6.38212C23.6183 6.22891 24.012 6.30458 24.3784 5.68737C24.6866 5.19117 25.0488 4.7306 25.4583 4.31406C23.6475 4.58844 21.8887 5.13494 20.2413 5.93504C21.0954 4.9047 23.0752 4.37668 24.1774 4.15498C25.3573 3.9185 25.6178 3.90533 26.0532 3.46265C26.4767 3.02955 26.9343 2.63114 27.4216 2.27125C25.566 2.4096 23.7465 2.85625 22.0378 3.59285C23.058 2.55426 26.2168 1.90683 27.1867 1.86848C28.5621 1.81351 28.1294 1.33706 29.8167 0.436521C25.9121 0.382256 21.1921 1.07388 18.8727 3.23215C17.9934 4.0499 14.6304 7.34658 12.7302 9.62797C12.0795 10.4082 11.5326 10.7936 11.344 12.6842C11.0946 15.1796 10.3984 18.6792 7.1367 21.4703C7.22986 21.3401 7.70618 20.5725 8.031 19.9406L8.03096 19.9406ZM3.01771 22.9869C3.62484 23.0799 3.26512 23.8181 2.78821 23.4567C2.75919 23.5156 2.73959 23.5787 2.73013 23.6437C2.85219 23.7682 3.01842 23.8393 3.19268 23.8418C2.87201 24.1669 2.58584 23.9305 2.26489 24.1941C2.14071 24.3335 2.05755 24.5047 2.02464 24.6885C1.99173 24.8723 2.01034 25.0617 2.07841 25.2356C1.94581 25.1398 1.84373 25.0077 1.78446 24.8553C1.7252 24.7028 1.71128 24.5365 1.74438 24.3763C1.69388 24.339 1.63419 24.3161 1.57169 24.3102C1.5092 24.3042 1.44626 24.3154 1.38962 24.3424L1.34771 24.1496C1.34771 24.1496 2.33688 24.0658 2.18648 23.333C2.10199 22.9234 2.56383 22.3744 2.70513 22.2014C2.7689 22.1236 3.30601 21.419 6.05833 21.0016C5.25792 21.2787 3.76559 21.4852 3.01771 22.9869L3.01771 22.9869Z" fill="#C3A357"/>
</svg>
