<svg width="32" height="32" viewBox="0 0 32 32" fill="none" xmlns="http://www.w3.org/2000/svg">
<path d="M8.01961 24.4804C7.75949 24.2203 7.6413 23.7309 7.61365 22.7697C7.6099 22.6392 7.60759 22.4946 7.60517 22.3429C7.60007 22.0233 7.59448 21.6727 7.57382 21.3584C7.54228 20.8785 7.47077 20.3332 7.26082 19.8285C7.05243 19.3275 6.71898 18.8893 6.40231 18.5236C6.19069 18.2791 5.94426 18.0212 5.71898 17.7854C5.61631 17.6779 5.51803 17.575 5.42944 17.4801C5.11952 17.1481 4.87753 16.8631 4.71248 16.5948C4.55064 16.3317 4.5 16.1436 4.5 16C4.5 15.8551 4.55009 15.67 4.70848 15.413C4.87092 15.1495 5.10965 14.8697 5.4186 14.5402C5.5031 14.4501 5.5962 14.3529 5.69353 14.2513C5.92223 14.0126 6.17424 13.7495 6.3927 13.4964C6.71293 13.1255 7.04654 12.6832 7.25988 12.1738C7.47546 11.659 7.5511 11.1097 7.58422 10.6227C7.60661 10.2935 7.61163 9.9321 7.61617 9.60565C7.61812 9.46493 7.61998 9.33071 7.62311 9.20836C7.64752 8.25302 7.76095 7.77827 8.01961 7.51961C8.27973 7.25949 8.76905 7.1413 9.73032 7.11365C9.86078 7.1099 10.0054 7.10759 10.1571 7.10517C10.4767 7.10007 10.8273 7.09448 11.1416 7.07382C11.6215 7.04228 12.1668 6.97077 12.6715 6.76082C13.1725 6.55243 13.6107 6.21898 13.9764 5.90231C14.2209 5.69069 14.4788 5.44426 14.7146 5.21898C14.8221 5.11631 14.925 5.01803 15.0199 4.92944C15.3519 4.61952 15.6369 4.37753 15.9052 4.21248C16.1683 4.05064 16.3564 4 16.5 4C16.6449 4 16.83 4.05009 17.087 4.20848C17.3505 4.37092 17.6303 4.60965 17.9598 4.9186C18.0499 5.0031 18.1471 5.0962 18.2487 5.19353C18.4874 5.42223 18.7505 5.67424 19.0036 5.8927C19.3745 6.21293 19.8168 6.54654 20.3262 6.75988C20.841 6.97546 21.3903 7.0511 21.8773 7.08422C22.2065 7.10661 22.5679 7.11163 22.8944 7.11617C23.0351 7.11812 23.1693 7.11998 23.2916 7.12311C24.247 7.14752 24.7217 7.26095 24.9804 7.51961C25.2405 7.77973 25.3587 8.26905 25.3864 9.23032C25.3901 9.36079 25.3924 9.50546 25.3948 9.65712C25.3999 9.9767 25.4055 10.3273 25.4262 10.6416C25.4577 11.1215 25.5292 11.6668 25.7392 12.1715C25.9476 12.6725 26.281 13.1107 26.5977 13.4764C26.8093 13.7209 27.0557 13.9788 27.281 14.2146C27.3837 14.3221 27.482 14.425 27.5706 14.5199C27.8805 14.8519 28.1225 15.1369 28.2875 15.4052C28.4494 15.6683 28.5 15.8564 28.5 16C28.5 16.1449 28.4499 16.33 28.2915 16.587C28.1291 16.8505 27.8903 17.1303 27.5814 17.4598C27.4969 17.5499 27.4038 17.6471 27.3065 17.7487C27.0778 17.9875 26.8258 18.2505 26.6073 18.5036C26.2871 18.8745 25.9535 19.3168 25.7401 19.8262C25.5245 20.341 25.4489 20.8903 25.4158 21.3773C25.3934 21.7065 25.3884 22.0679 25.3838 22.3943C25.3819 22.535 25.38 22.6693 25.3769 22.7916C25.3525 23.747 25.2391 24.2217 24.9804 24.4804C24.7203 24.7405 24.2309 24.8587 23.2697 24.8864C23.1392 24.8901 22.9945 24.8924 22.8429 24.8948C22.5233 24.8999 22.1727 24.9055 21.8584 24.9262C21.3785 24.9577 20.8332 25.0292 20.3285 25.2392C19.8275 25.4476 19.3893 25.781 19.0236 26.0977C18.7791 26.3093 18.5212 26.5557 18.2854 26.781C18.1779 26.8837 18.075 26.982 17.9801 27.0706C17.6481 27.3805 17.3631 27.6225 17.0948 27.7875C16.8317 27.9494 16.6436 28 16.5 28C16.3551 28 16.17 27.9499 15.913 27.7915C15.6495 27.6291 15.3697 27.3903 15.0402 27.0814C14.9501 26.9969 14.8529 26.9038 14.7513 26.8065C14.5125 26.5778 14.2495 26.3258 13.9964 26.1073C13.6255 25.7871 13.1832 25.4535 12.6738 25.2401C12.159 25.0245 11.6097 24.9489 11.1227 24.9158C10.7935 24.8934 10.4321 24.8884 10.1057 24.8838C9.96495 24.8819 9.83072 24.88 9.70836 24.8769C8.75302 24.8525 8.27827 24.7391 8.01961 24.4804Z" fill="#FBFCFD" stroke="#26C6F9" stroke-width="2"/>
<path d="M16.0009 12H16.0109" stroke="#26C6F9" stroke-width="1.75" stroke-linecap="round" stroke-linejoin="round"/>
<path d="M15 16H16V20H17" stroke="#26C6F9" stroke-width="1.75" stroke-linecap="round" stroke-linejoin="round"/>
</svg>
