<svg width="32" height="32" viewBox="0 0 32 32" fill="none" xmlns="http://www.w3.org/2000/svg">
<path d="M7.51961 24.4804C7.25949 24.2203 7.1413 23.7309 7.11365 22.7697C7.1099 22.6392 7.10759 22.4946 7.10517 22.3429C7.10007 22.0233 7.09448 21.6727 7.07382 21.3584C7.04228 20.8785 6.97077 20.3332 6.76082 19.8285C6.55243 19.3275 6.21898 18.8893 5.90231 18.5236C5.69069 18.2791 5.44426 18.0212 5.21898 17.7854C5.11631 17.6779 5.01803 17.575 4.92944 17.4801C4.61952 17.1481 4.37753 16.8631 4.21248 16.5948C4.05064 16.3317 4 16.1436 4 16C4 15.8551 4.05009 15.67 4.20848 15.413C4.37092 15.1495 4.60965 14.8697 4.9186 14.5402C5.0031 14.4501 5.0962 14.3529 5.19353 14.2513C5.42223 14.0126 5.67424 13.7495 5.8927 13.4964C6.21293 13.1255 6.54654 12.6832 6.75988 12.1738C6.97546 11.659 7.0511 11.1097 7.08422 10.6227C7.10661 10.2935 7.11163 9.9321 7.11617 9.60565C7.11812 9.46493 7.11998 9.33071 7.12311 9.20836C7.14752 8.25302 7.26095 7.77827 7.51961 7.51961C7.77973 7.25949 8.26905 7.1413 9.23032 7.11365C9.36078 7.1099 9.50544 7.10759 9.6571 7.10517C9.97668 7.10007 10.3273 7.09448 10.6416 7.07382C11.1215 7.04228 11.6668 6.97077 12.1715 6.76082C12.6725 6.55243 13.1107 6.21898 13.4764 5.90231C13.7209 5.69069 13.9788 5.44426 14.2146 5.21898C14.3221 5.11631 14.425 5.01803 14.5199 4.92944C14.8519 4.61952 15.1369 4.37753 15.4052 4.21248C15.6683 4.05064 15.8564 4 16 4C16.1449 4 16.33 4.05009 16.587 4.20848C16.8505 4.37092 17.1303 4.60965 17.4598 4.9186C17.5499 5.0031 17.6471 5.0962 17.7487 5.19353C17.9874 5.42223 18.2505 5.67424 18.5036 5.8927C18.8745 6.21293 19.3168 6.54654 19.8262 6.75988C20.341 6.97546 20.8903 7.0511 21.3773 7.08422C21.7065 7.10661 22.0679 7.11163 22.3944 7.11617C22.5351 7.11812 22.6693 7.11998 22.7916 7.12311C23.747 7.14752 24.2217 7.26095 24.4804 7.51961C24.7405 7.77973 24.8587 8.26905 24.8864 9.23032C24.8901 9.36079 24.8924 9.50546 24.8948 9.65712C24.8999 9.9767 24.9055 10.3273 24.9262 10.6416C24.9577 11.1215 25.0292 11.6668 25.2392 12.1715C25.4476 12.6725 25.781 13.1107 26.0977 13.4764C26.3093 13.7209 26.5557 13.9788 26.781 14.2146C26.8837 14.3221 26.982 14.425 27.0706 14.5199C27.3805 14.8519 27.6225 15.1369 27.7875 15.4052C27.9494 15.6683 28 15.8564 28 16C28 16.1449 27.9499 16.33 27.7915 16.587C27.6291 16.8505 27.3903 17.1303 27.0814 17.4598C26.9969 17.5499 26.9038 17.6471 26.8065 17.7487C26.5778 17.9875 26.3258 18.2505 26.1073 18.5036C25.7871 18.8745 25.4535 19.3168 25.2401 19.8262C25.0245 20.341 24.9489 20.8903 24.9158 21.3773C24.8934 21.7065 24.8884 22.0679 24.8838 22.3943C24.8819 22.535 24.88 22.6693 24.8769 22.7916C24.8525 23.747 24.7391 24.2217 24.4804 24.4804C24.2203 24.7405 23.7309 24.8587 22.7697 24.8864C22.6392 24.8901 22.4945 24.8924 22.3429 24.8948C22.0233 24.8999 21.6727 24.9055 21.3584 24.9262C20.8785 24.9577 20.3332 25.0292 19.8285 25.2392C19.3275 25.4476 18.8893 25.781 18.5236 26.0977C18.2791 26.3093 18.0212 26.5557 17.7854 26.781C17.6779 26.8837 17.575 26.982 17.4801 27.0706C17.1481 27.3805 16.8631 27.6225 16.5948 27.7875C16.3317 27.9494 16.1436 28 16 28C15.8551 28 15.67 27.9499 15.413 27.7915C15.1495 27.6291 14.8697 27.3903 14.5402 27.0814C14.4501 26.9969 14.3529 26.9038 14.2513 26.8065C14.0125 26.5778 13.7495 26.3258 13.4964 26.1073C13.1255 25.7871 12.6832 25.4535 12.1738 25.2401C11.659 25.0245 11.1097 24.9489 10.6227 24.9158C10.2935 24.8934 9.93212 24.8884 9.60567 24.8838C9.46495 24.8819 9.33072 24.88 9.20836 24.8769C8.25302 24.8525 7.77827 24.7391 7.51961 24.4804Z" fill="#FBFCFD" stroke="#FF9F43" stroke-width="2"/>
<path d="M14.0007 11.3335H20.6673L22.0007 12.6668L20.6673 14.0002H14.0007C13.6325 14.0002 13.334 13.7017 13.334 13.3335V12.0002C13.334 11.632 13.6325 11.3335 14.0007 11.3335" stroke="#FF9F43" stroke-width="1.75" stroke-linecap="round" stroke-linejoin="round"/>
<path d="M16.666 16.6665H11.9993L10.666 17.9998L11.9993 19.3332H16.666C17.0342 19.3332 17.3327 19.0347 17.3327 18.6665V17.3332C17.3327 16.965 17.0342 16.6665 16.666 16.6665" stroke="#FF9F43" stroke-width="1.75" stroke-linecap="round" stroke-linejoin="round"/>
<path d="M15.9993 22.6668V19.3335" stroke="#FF9F43" stroke-width="1.75" stroke-linecap="round" stroke-linejoin="round"/>
<path d="M15.9993 16.6667V14" stroke="#FF9F43" stroke-width="1.75" stroke-linecap="round" stroke-linejoin="round"/>
<path d="M15.9993 11.3333V10" stroke="#FF9F43" stroke-width="1.75" stroke-linecap="round" stroke-linejoin="round"/>
</svg>
