<svg width="40" height="40" viewBox="0 0 40 40" fill="none" xmlns="http://www.w3.org/2000/svg">
<path d="M36.0013 17.0026H20.3346V23.1693H29.5013C29.3346 24.6693 28.3346 27.0026 26.168 28.5026C24.8346 29.5026 22.8346 30.1693 20.3346 30.1693C16.0013 30.1693 12.168 27.3359 10.8346 23.1693C10.5013 22.1693 10.3346 21.0026 10.3346 19.8359C10.3346 18.6693 10.5013 17.5026 10.8346 16.5026C11.0013 16.1693 11.0013 15.8359 11.168 15.6693C12.668 12.1693 16.168 9.66927 20.3346 9.66927C23.5013 9.66927 25.5013 11.0026 26.8346 12.1693L31.5013 7.5026C28.668 5.0026 24.8346 3.33594 20.3346 3.33594C13.8346 3.33594 8.16797 7.0026 5.5013 12.5026C4.33464 14.8359 3.66797 17.3359 3.66797 20.0026C3.66797 22.6693 4.33464 25.1693 5.5013 27.5026C8.16797 33.0026 13.8346 36.6693 20.3346 36.6693C24.8346 36.6693 28.668 35.1693 31.3346 32.6693C34.5013 29.8359 36.3346 25.5026 36.3346 20.3359C36.3346 19.0026 36.168 18.0026 36.0013 17.0026Z" stroke="white" stroke-width="1.5" stroke-miterlimit="10" stroke-linecap="round" stroke-linejoin="round"/>
</svg>
