<svg width="71" height="18" fill="none" xmlns="http://www.w3.org/2000/svg"><path d="M13.862 16.064H5.184v.363h8.678v-.363zM67.91 16.064h-8.68v.363h8.68v-.363zM16.905 15.561a.422.422 0 0 0-.192-.317.731.731 0 0 0-.415-.112.78.78 0 0 0-.315.059.505.505 0 0 0-.208.162.394.394 0 0 0-.023.425.46.46 0 0 0 .135.13.956.956 0 0 0 .172.084c.06.022.115.04.165.053l.274.075c.071.019.15.045.236.078.087.033.17.078.25.135a.636.636 0 0 1 .276.544.733.733 0 0 1-.115.403.788.788 0 0 1-.333.286c-.146.07-.322.106-.53.106-.194 0-.362-.032-.503-.095a.804.804 0 0 1-.333-.266.764.764 0 0 1-.136-.396h.338c.008.104.043.19.103.258.06.067.137.117.23.15a.912.912 0 0 0 .3.048.87.87 0 0 0 .338-.062c.1-.042.178-.1.236-.174a.418.418 0 0 0 .087-.263.327.327 0 0 0-.075-.223.551.551 0 0 0-.198-.14 2.054 2.054 0 0 0-.266-.094l-.333-.096a1.235 1.235 0 0 1-.502-.265.586.586 0 0 1-.184-.45c0-.154.04-.288.122-.403a.82.82 0 0 1 .333-.268c.14-.065.297-.097.47-.097.174 0 .329.032.464.095a.806.806 0 0 1 .323.258.65.65 0 0 1 .127.372h-.317zm.893 2.063v-2.75h1.634v.295h-1.306v.93h1.22v.295h-1.22v.934h1.326v.296h-1.654zm2.224 0v-2.75h1.633v.295H20.35v.93h1.22v.295h-1.22v.934h1.326v.296h-1.654zm3.27-2.75h.391l.92 2.283h.031l.92-2.283h.391v2.75h-.306v-2.09h-.027l-.845 2.09h-.296l-.846-2.09H23.6v2.09h-.307v-2.75zm5.593 1.375c0 .29-.051.54-.154.752a1.176 1.176 0 0 1-.425.488 1.12 1.12 0 0 1-.615.172 1.12 1.12 0 0 1-.616-.172 1.176 1.176 0 0 1-.424-.488 1.7 1.7 0 0 1-.154-.752c0-.29.05-.54.154-.752.103-.211.244-.374.424-.489.18-.114.385-.172.616-.172.23 0 .436.057.616.172.179.115.32.278.424.489a1.7 1.7 0 0 1 .154.752zm-.317 0c0-.238-.04-.44-.117-.603a.862.862 0 0 0-.316-.372.81.81 0 0 0-.444-.126.816.816 0 0 0-.445.126.874.874 0 0 0-.316.372 1.403 1.403 0 0 0-.117.603c0 .238.04.439.117.603a.874.874 0 0 0 .316.372.816.816 0 0 0 .445.126.809.809 0 0 0 .444-.126.862.862 0 0 0 .316-.372c.078-.164.117-.365.117-.603zm.868 1.375v-2.75h.914c.212 0 .385.037.52.11a.698.698 0 0 1 .302.3.938.938 0 0 1 .098.433.922.922 0 0 1-.098.431.696.696 0 0 1-.3.296c-.134.07-.307.105-.516.105h-.74v-.3h.73a.8.8 0 0 0 .348-.065.403.403 0 0 0 .193-.182c.04-.08.06-.175.06-.285 0-.11-.02-.206-.06-.289a.417.417 0 0 0-.194-.19.774.774 0 0 0-.353-.069h-.576v2.455h-.328zm1.274-1.236.666 1.236h-.38l-.656-1.236h.37zm1.106 1.236v-2.75h1.633v.295h-1.305v.93h1.22v.295h-1.22v.934h1.326v.296h-1.654zm3.455.021a.227.227 0 0 1-.168-.07.236.236 0 0 1-.07-.171c0-.067.024-.124.07-.17a.227.227 0 0 1 .168-.072c.065 0 .121.024.168.071.046.047.07.104.07.17a.25.25 0 0 1-.12.21.225.225 0 0 1-.118.032zm3.366-2.084a.422.422 0 0 0-.193-.317.732.732 0 0 0-.415-.112c-.12 0-.225.02-.314.059a.503.503 0 0 0-.21.162.394.394 0 0 0-.073.235.34.34 0 0 0 .051.19c.036.051.08.095.135.13a.967.967 0 0 0 .172.084c.06.022.115.04.165.053l.275.075c.07.019.149.045.235.078.087.033.17.078.25.135a.636.636 0 0 1 .276.544.733.733 0 0 1-.115.403.786.786 0 0 1-.333.286c-.145.07-.322.106-.53.106-.194 0-.361-.032-.503-.095a.805.805 0 0 1-.333-.266.765.765 0 0 1-.136-.396h.338c.009.104.043.19.103.258.06.067.137.117.23.15a.913.913 0 0 0 .301.048.87.87 0 0 0 .337-.062c.1-.042.179-.1.237-.174a.418.418 0 0 0 .087-.263.326.326 0 0 0-.075-.223.552.552 0 0 0-.199-.14 2.054 2.054 0 0 0-.265-.094l-.333-.096a1.233 1.233 0 0 1-.502-.265.586.586 0 0 1-.185-.45c0-.154.04-.288.123-.403a.82.82 0 0 1 .333-.268c.14-.065.296-.097.469-.097.174 0 .33.032.465.095a.806.806 0 0 1 .322.258.65.65 0 0 1 .127.372h-.317zm1.004 2.063h-.344l.994-2.75h.338l.994 2.75h-.344l-.809-2.315h-.02l-.81 2.315zm.127-1.075h1.384v.296h-1.384v-.296zm2.133-1.675.803 2.315h.032l.803-2.315h.344l-.994 2.75h-.338l-.994-2.75h.344zm2.403 2.75v-2.75h1.633v.295h-1.305v.93h1.22v.295h-1.22v.934h1.326v.296h-1.654zm3.27-2.75h.391l.92 2.283h.031l.92-2.283h.391v2.75h-.306v-2.09h-.027l-.845 2.09h-.296l-.846-2.09h-.026v2.09h-.307v-2.75zm5.593 1.375c0 .29-.051.54-.155.752a1.174 1.174 0 0 1-.423.488 1.12 1.12 0 0 1-.616.172 1.12 1.12 0 0 1-.616-.172 1.173 1.173 0 0 1-.424-.488 1.7 1.7 0 0 1-.155-.752c0-.29.052-.54.155-.752.103-.211.244-.374.424-.489a1.12 1.12 0 0 1 .616-.172c.23 0 .436.057.616.172.179.115.32.278.423.489.104.211.155.462.155.752zm-.317 0c0-.238-.04-.44-.118-.603a.81.81 0 0 0-.76-.498.816.816 0 0 0-.445.126.874.874 0 0 0-.315.372 1.403 1.403 0 0 0-.117.603c0 .238.04.439.117.603a.874.874 0 0 0 .315.372.816.816 0 0 0 .446.126.81.81 0 0 0 .76-.498 1.39 1.39 0 0 0 .117-.603zm.868 1.375v-2.75h.914c.212 0 .385.037.52.11a.697.697 0 0 1 .302.3.936.936 0 0 1 .098.433.92.92 0 0 1-.098.431.694.694 0 0 1-.3.296c-.135.07-.307.105-.516.105h-.74v-.3h.73a.8.8 0 0 0 .348-.065.403.403 0 0 0 .193-.182.622.622 0 0 0 .06-.285c0-.11-.02-.206-.06-.289a.416.416 0 0 0-.194-.19.775.775 0 0 0-.353-.069h-.576v2.455h-.328zm1.274-1.236.666 1.236h-.38l-.656-1.236h.37zm1.106 1.236v-2.75h1.633v.295h-1.305v.93h1.22v.295h-1.22v.934h1.326v.296h-1.654z" fill="#5D6B7B"/><path d="M3.412 10.464V1.221h1.866v9.243H3.412zM.714 2.225V.397h7.262v1.828H.714zm10.226 8.343c-1.027 0-1.824-.28-2.392-.838-.563-.563-.845-1.357-.845-2.381v-.81c0-1.071.27-1.9.811-2.486.545-.586 1.313-.88 2.303-.88.935 0 1.658.351 2.166 1.053.513.697.77 1.68.77 2.95v.47H9.4l.001-1.28h2.649l-.02-.167c-.05-.41-.178-.729-.382-.955-.204-.23-.481-.346-.831-.346-.45 0-.8.136-1.05.408-.244.272-.366.56-.366 1.06L9.4 7.645c0 .49.134.598.402.866.272.267.651.401 1.138.401a2.192 2.192 0 0 0 1.41-.519l1.22 1.1a4.115 4.115 0 0 1-1.24.797 3.696 3.696 0 0 1-1.39.277zm4.448-.104V3.278h2.003v7.186h-2.003zm3.979-5.186a.798.798 0 0 0-.334-.207 1.378 1.378 0 0 0-.457-.07c-.377 0-.67.125-.878.374-.205.245-.307.587-.307 1.025l-.143-1.87c.195-.424.447-.756.756-.996.314-.24.656-.36 1.029-.36.295 0 .56.048.797.145.24.092.45.23.627.415l-1.09 1.544zm10.219 5.186V6.317c0-.42-.1-.743-.3-.97-.195-.23-.475-.345-.838-.345-.359 0-.636.11-.831.332-.19.217-.286.526-.286.928L26.983 4.6c.223-.457.513-.808.872-1.052.359-.25.754-.374 1.186-.374.767 0 1.36.274 1.778.824.422.544.633 1.315.633 2.312v4.154h-1.866zm-8.243 0V3.278h1.866v7.186h-1.866zm4.12 0V6.317c0-.42-.101-.743-.306-.97-.2-.23-.488-.345-.865-.345-.345 0-.613.099-.804.297-.186.194-.279.469-.279.824l-.143-1.592c.204-.434.46-.769.77-1.004a1.808 1.808 0 0 1 1.117-.353c.759 0 1.344.274 1.758.824.413.544.62 1.315.62 2.312v4.154h-1.867zm7.727-8.17V.397h1.866v1.897H33.19zm0 8.17V3.278h1.866v7.186H33.19zm3.603 0V3.278h1.867v7.186h-1.867zm4.088 0V6.11c0-.355-.1-.627-.3-.817-.195-.194-.474-.29-.838-.29-.345 0-.613.099-.804.297-.186.194-.279.469-.279.824l-.143-1.592c.204-.434.452-.769.742-1.004.296-.236.677-.353 1.145-.353.745 0 1.322.256 1.73.768.41.508.614 1.228.614 2.16v4.362H40.88zm7.596 0V5.91c0-.333-.11-.589-.327-.769-.218-.18-.527-.27-.927-.27a2.43 2.43 0 0 0-.783.132 2.109 2.109 0 0 0-.688.366l-1.158-1.156c.281-.327.654-.581 1.117-.761a4.124 4.124 0 0 1 1.54-.277c.93 0 1.65.233 2.16.699.508.466.762 1.124.762 1.973v4.618h-1.696zm-1.969.104c-.754 0-1.32-.182-1.696-.547-.377-.365-.566-.923-.566-1.675 0-.716.21-1.249.627-1.6.422-.355 1.054-.533 1.894-.533h1.771l.096 1.447h-1.86c-.282 0-.493.058-.634.173-.14.111-.21.282-.21.513 0 .235.088.41.265.526.181.11.45.166.804.166.495 0 .865-.058 1.11-.173.245-.116.368-.296.368-.54l.143 1.045a.986.986 0 0 1-.36.679 2.132 2.132 0 0 1-.791.394 3.68 3.68 0 0 1-.96.125zM53.88.398v7.691c0 .171.048.305.144.402.1.097.24.145.422.145h.313v1.828h-.954c-.567 0-1.008-.166-1.321-.498-.314-.333-.47-.801-.47-1.406V.397h1.866zm4.776 0v10.066h-1.867V2.627l-1.205.464V1.076L57.06.397h1.594zm4.946 10.17c-.986 0-1.726-.256-2.221-.768-.495-.517-.742-1.214-.742-2.091V3.132c0-.89.25-1.59.749-2.098.5-.507 1.237-.761 2.214-.761.981 0 1.72.254 2.214.761.5.503.75 1.203.75 2.098V7.71c0 .89-.25 1.59-.75 2.097-.5.508-1.238.762-2.214.762zm0-1.828c.39 0 .67-.134.838-.401.173-.273.259-.644.259-1.115V3.617c0-.476-.086-.847-.259-1.115-.168-.268-.447-.401-.838-.401-.386 0-.665.133-.838.401-.173.268-.259.64-.259 1.115v3.607c0 .47.086.842.26 1.115.172.267.45.401.837.401zM71 .397v10.067h-1.867V2.627l-1.206.464V1.076l1.478-.679H71z" fill="#202E40"/></svg>