<svg xmlns="http://www.w3.org/2000/svg" width="1024" height="1024"><path d="M395.093 92.331c-120.668 12.024-221.612 86.123-271.338 189.511l-.876 2.02c-20.078 41.837-31.808 90.951-31.808 142.805s11.73 100.969 32.682 144.835l-.873-2.03c45.16 94.245 130.251 163.161 232.748 185.368l2.218.403c93.611 19.413 189.141-1.237 267.392-57.813l11.648-8.448 120.619 120.533c84.139 84.053 122.496 121.259 126.933 123.093 12.587 5.248 23.339 2.475 36.139-9.301 13.44-12.416 17.536-25.643 12.032-38.869-1.835-4.437-39.04-42.795-123.093-126.933L688.983 636.886l8.448-11.648c47.488-65.707 70.357-145.536 63.957-223.104-9.216-110.635-66.816-204.8-160.683-262.699-59.136-36.437-134.613-53.717-205.611-47.104zm68.267 75.648c43.918 6.684 83.067 23.141 116.473 47.097l-.804-.548c17.835 12.715 47.061 41.941 59.776 59.776 30.595 42.249 48.939 95.113 48.939 152.262v.107-.006.101c0 57.149-18.344 110.013-49.465 153.025l.526-.764c-12.715 17.835-41.941 47.061-59.776 59.776-42.249 30.595-95.113 48.939-152.262 48.939h-.107.006-.101c-57.149 0-110.013-18.344-153.025-49.465l.764.526c-17.835-12.715-47.061-41.941-59.776-59.776-30.595-42.249-48.939-95.113-48.939-152.262v-.107.006c0-43.691 9.344-81.493 29.824-120.832 12.667-24.462 28.362-45.386 46.949-63.336l.07-.067c38.075-38.755 88.248-65.511 144.397-74.143l1.438-.182c18.517-2.944 56.363-3.029 75.093-.128z"/></svg>