<svg width="34" height="35" fill="none" xmlns="http://www.w3.org/2000/svg"><mask id="a" style="mask-type:alpha" maskUnits="userSpaceOnUse" x="0" y="0" width="34" height="35"><path d="M17 34.838c9.389 0 17-7.61 17-17 0-9.388-7.611-17-17-17s-17 7.612-17 17c0 9.39 7.611 17 17 17z" fill="#fff"/></mask><g mask="url(#a)"><path d="M38.019.838h-41.96a1.7 1.7 0 0 0-1.7 1.7v30.6a1.7 1.7 0 0 0 1.7 1.7h41.96a1.7 1.7 0 0 0 1.7-1.7v-30.6a1.7 1.7 0 0 0-1.7-1.7z" fill="#000"/><mask id="b" style="mask-type:alpha" maskUnits="userSpaceOnUse" x="-6" y="0" width="46" height="35"><path d="M38.019.838h-41.96a1.7 1.7 0 0 0-1.7 1.7v30.6a1.7 1.7 0 0 0 1.7 1.7h41.96a1.7 1.7 0 0 0 1.7-1.7v-30.6a1.7 1.7 0 0 0-1.7-1.7z" fill="#fff"/></mask><g mask="url(#b)"><mask id="c" style="mask-type:alpha" maskUnits="userSpaceOnUse" x="-6" y="0" width="46" height="35"><path d="M39.718.838H-5.64v34h45.36v-34z" fill="#fff"/></mask><g mask="url(#c)"><path d="M39.718.838H-5.64v34h45.36v-34z" fill="#2E42A5"/><mask id="d" style="mask-type:alpha" maskUnits="userSpaceOnUse" x="-6" y="0" width="46" height="35"><path d="M39.718.838H-5.64v34h45.36v-34z" fill="#fff"/></mask><g mask="url(#d)"><path d="M19.874.838H-5.641v19.834h25.515V.838z" fill="#2B409A"/><mask id="e" style="mask-type:alpha" maskUnits="userSpaceOnUse" x="-6" y="0" width="26" height="21"><path d="M19.874.838H-5.641v19.834h25.515V.838z" fill="#fff"/></mask><g mask="url(#e)"><path d="m-8.481 19.255 5.614 2.46 22.868-18.2 2.962-3.658-6.004-.823-9.327 7.844-7.508 5.285-8.605 7.092z" fill="#F7FCFF"/><path d="m-7.713 20.979 2.86 1.428L21.9-.483h-4.016L-7.713 20.98z" fill="#F50100"/><path d="m22.715 19.255-5.615 2.46-22.868-18.2L-8.73-.144l6.004-.823 9.328 7.844 7.508 5.285 8.605 7.092z" fill="#F7FCFF"/><path d="m22.523 20.492-2.86 1.428-11.391-9.8-3.377-1.095L-9.015-.131h4.017L8.903 10.76l3.692 1.313 9.928 8.42z" fill="#F50100"/><path d="M9.575-.225v8.5h11.362v4.959H9.574l.001 8.5H4.614v-8.5H-6.705V8.275H4.613v-8.5h4.962z" fill="#F50100" stroke="#F7FCFF" stroke-width="1.5"/></g></g><mask id="f" style="mask-type:alpha" maskUnits="userSpaceOnUse" x="-6" y="0" width="46" height="35"><path d="M39.718.838H-5.64v34h45.36v-34z" fill="#fff"/></mask><g mask="url(#f)" fill="#F7FCFF"><path d="M7.117 29.88 5.27 31.584l.183-2.504-2.483-.379 2.073-1.419-1.252-2.177 2.402.736.923-2.336.922 2.336 2.402-.736-1.252 2.177 2.073 1.42-2.483.378.183 2.505-1.845-1.705zM25.543 19.255l-1.23 1.136.122-1.67-1.656-.252 1.382-.946-.834-1.451 1.601.49.615-1.557.615 1.557 1.602-.49-.835 1.451 1.382.946-1.656.252.122 1.67-1.23-1.136zM28.378 7.922l-1.23 1.136.122-1.67-1.656-.252 1.382-.946-.834-1.451 1.601.49.615-1.557.615 1.557 1.602-.49-.835 1.451 1.382.946-1.656.252.122 1.67-1.23-1.136zM35.466 13.588l-1.23 1.137.122-1.67-1.656-.253 1.382-.945-.834-1.452 1.601.49.615-1.557.615 1.557 1.601-.49-.834 1.452 1.382.945-1.656.253.122 1.67-1.23-1.137zM29.796 32.005l-1.23 1.136.122-1.669-1.656-.253 1.382-.946-.834-1.45 1.601.49.615-1.558.615 1.557 1.602-.49-.835 1.451 1.382.946-1.656.253.122 1.67-1.23-1.137zM34.758 21.026l-1.25.657.238-1.39-1.01-.986 1.397-.203.624-1.265.625 1.265 1.398.203-1.011.985.238 1.391-1.25-.657z"/></g></g></g><mask id="g" style="mask-type:alpha" maskUnits="userSpaceOnUse" x="-6" y="0" width="46" height="35"><path d="M38.019.838h-41.96a1.7 1.7 0 0 0-1.7 1.7v30.6a1.7 1.7 0 0 0 1.7 1.7h41.96a1.7 1.7 0 0 0 1.7-1.7v-30.6a1.7 1.7 0 0 0-1.7-1.7z" fill="#fff"/></mask><g mask="url(#g)"><path d="M37.31 1.547H-3.232a1.7 1.7 0 0 0-1.7 1.7V32.43a1.7 1.7 0 0 0 1.7 1.7H37.31a1.7 1.7 0 0 0 1.7-1.7V3.247a1.7 1.7 0 0 0-1.7-1.7z" stroke="#000" stroke-opacity=".1"/></g></g></svg>