<svg width="34" height="35" fill="none" xmlns="http://www.w3.org/2000/svg"><mask id="a" style="mask-type:alpha" maskUnits="userSpaceOnUse" x="0" y="0" width="34" height="35"><path d="M17 34.109c9.389 0 17-7.611 17-17s-7.611-17-17-17-17 7.611-17 17 7.611 17 17 17z" fill="#fff"/></mask><g mask="url(#a)"><mask id="b" style="mask-type:alpha" maskUnits="userSpaceOnUse" x="-6" y="0" width="46" height="35"><path d="M39.666.109H-5.667v34h45.333v-34z" fill="#fff"/></mask><g mask="url(#b)"><path d="M5.666.109h34v34h-34v-34z" fill="#EF0000"/><path d="M-5.667.109h17v34h-17v-34z" fill="#2F8D00"/><mask id="c" style="mask-type:alpha" maskUnits="userSpaceOnUse" x="0" y="6" width="23" height="23"><path d="M11.198 28.17C5.162 28.17.27 23.216.27 17.11.27 11 5.162 6.048 11.198 6.048c6.036 0 10.929 4.952 10.929 11.06 0 6.108-4.893 11.06-10.929 11.06z" fill="#fff"/></mask><g mask="url(#c)"><path d="M10.523 5.776h1.417v3.823h-1.417V5.776z" fill="#FFE017"/></g><mask id="d" style="mask-type:alpha" maskUnits="userSpaceOnUse" x="0" y="6" width="23" height="23"><path d="M11.198 28.17C5.162 28.17.27 23.216.27 17.11.27 11 5.162 6.048 11.198 6.048c6.036 0 10.929 4.952 10.929 11.06 0 6.108-4.893 11.06-10.929 11.06z" fill="#fff"/></mask><g mask="url(#d)"><path d="M10.523 24.892h1.417v3.55h-1.417v-3.55z" fill="#FFE017"/></g><mask id="e" style="mask-type:alpha" maskUnits="userSpaceOnUse" x="0" y="6" width="23" height="23"><path d="M11.198 28.17C5.162 28.17.27 23.216.27 17.11.27 11 5.162 6.048 11.198 6.048c6.036 0 10.929 4.952 10.929 11.06 0 6.108-4.893 11.06-10.929 11.06z" fill="#fff"/></mask><g mask="url(#e)"><path d="m.445 17.681-.396-1.016c4.37-1.745 7.67-2.87 9.908-3.377 3.284-.744 6.892-1.295 10.825-1.652l.096 1.088c-3.887.353-7.45.896-10.686 1.63-2.171.492-5.424 1.601-9.747 3.327z" fill="#FFE017"/></g><mask id="f" style="mask-type:alpha" maskUnits="userSpaceOnUse" x="0" y="6" width="23" height="23"><path d="M11.198 28.17C5.162 28.17.27 23.216.27 17.11.27 11 5.162 6.048 11.198 6.048c6.036 0 10.929 4.952 10.929 11.06 0 6.108-4.893 11.06-10.929 11.06z" fill="#fff"/></mask><g mask="url(#f)"><path d="m21.45 10.966-.322 1.043c-3.303-1.043-5.994-1.49-8.062-1.352l-.072-1.09c2.22-.15 5.036.32 8.456 1.4z" fill="#FFE017"/></g><mask id="g" style="mask-type:alpha" maskUnits="userSpaceOnUse" x="0" y="6" width="23" height="23"><path d="M11.198 28.17C5.162 28.17.27 23.216.27 17.11.27 11 5.162 6.048 11.198 6.048c6.036 0 10.929 4.952 10.929 11.06 0 6.108-4.893 11.06-10.929 11.06z" fill="#fff"/></mask><g mask="url(#g)"><path d="m22.592 16.797-.61.9c-1.685-1.168-3.76-1.755-6.239-1.755v-1.093c2.688 0 4.976.648 6.849 1.948z" fill="#FFE017"/></g><mask id="h" style="mask-type:alpha" maskUnits="userSpaceOnUse" x="0" y="6" width="23" height="23"><path d="M11.198 28.17C5.162 28.17.27 23.216.27 17.11.27 11 5.162 6.048 11.198 6.048c6.036 0 10.929 4.952 10.929 11.06 0 6.108-4.893 11.06-10.929 11.06z" fill="#fff"/></mask><g mask="url(#h)"><path d="m21.678 17.124.279 1.055c-3.63.984-7.039 1.542-10.226 1.673-3.208.132-6.948-.428-11.222-1.676l.299-1.05c4.17 1.218 7.798 1.761 10.88 1.634 3.103-.128 6.433-.673 9.99-1.636z" fill="#FFE017"/></g><mask id="i" style="mask-type:alpha" maskUnits="userSpaceOnUse" x="0" y="6" width="23" height="23"><path d="M11.198 28.17C5.162 28.17.27 23.216.27 17.11.27 11 5.162 6.048 11.198 6.048c6.036 0 10.929 4.952 10.929 11.06 0 6.108-4.893 11.06-10.929 11.06z" fill="#fff"/></mask><g mask="url(#i)"><path d="m21.267 22.26-1.706 1.75c-3.243-3.24-6.097-5.557-8.546-6.948-2.491-1.416-5.74-2.853-9.74-4.306l.82-2.314c4.119 1.497 7.487 2.987 10.109 4.477 2.663 1.514 5.679 3.96 9.063 7.34z" fill="#FFE017"/></g><mask id="j" style="mask-type:alpha" maskUnits="userSpaceOnUse" x="0" y="6" width="23" height="23"><path d="M11.198 28.17C5.162 28.17.27 23.216.27 17.11.27 11 5.162 6.048 11.198 6.048c6.036 0 10.929 4.952 10.929 11.06 0 6.108-4.893 11.06-10.929 11.06z" fill="#fff"/></mask><g mask="url(#j)"><path d="m2.066 23.25-.646-.875a8.71 8.71 0 0 1 .473-.325 13.14 13.14 0 0 1 1.21-.698c1.204-.61 2.413-.992 3.565-1.027l.168-.003v1.093c-.045 0-.09 0-.136.002-.97.03-2.037.366-3.114.912a12.09 12.09 0 0 0-1.419.848 4.48 4.48 0 0 0-.101.074z" fill="#FFE017"/></g><mask id="k" style="mask-type:alpha" maskUnits="userSpaceOnUse" x="0" y="6" width="23" height="23"><path d="M11.198 28.17C5.162 28.17.27 23.216.27 17.11.27 11 5.162 6.048 11.198 6.048c6.036 0 10.929 4.952 10.929 11.06 0 6.108-4.893 11.06-10.929 11.06z" fill="#fff"/></mask><g mask="url(#k)"><path d="m2.567 23.63.272-1.058c3.599.948 6.373 1.42 8.31 1.42 1.928 0 4.799-.557 8.593-1.675l.302 1.05c-3.884 1.144-6.843 1.718-8.896 1.718-2.045 0-4.901-.486-8.58-1.455z" fill="#FFE017"/></g><mask id="l" style="mask-type:alpha" maskUnits="userSpaceOnUse" x="0" y="6" width="23" height="23"><path d="M11.198 28.17C5.162 28.17.27 23.216.27 17.11.27 11 5.162 6.048 11.198 6.048c6.036 0 10.929 4.952 10.929 11.06 0 6.108-4.893 11.06-10.929 11.06z" fill="#fff"/></mask><g mask="url(#l)"><path d="m1.165 13.843 1.71-1.745L5.38 14.61l-1.71 1.746-2.504-2.513z" fill="#FFE017"/></g><mask id="m" style="mask-type:alpha" maskUnits="userSpaceOnUse" x="0" y="6" width="23" height="23"><path d="M11.198 28.17C5.162 28.17.27 23.216.27 17.11.27 11 5.162 6.048 11.198 6.048c6.036 0 10.929 4.952 10.929 11.06 0 6.108-4.893 11.06-10.929 11.06z" fill="#fff"/></mask><g mask="url(#m)"><path d="m15.35 22.56 1.272-2.094 3.972 2.472-1.272 2.093-3.971-2.47z" fill="#FFE017"/></g><path d="M11.198 6.049c6.036 0 10.929 4.952 10.929 11.06 0 6.108-4.893 11.06-10.929 11.06C5.162 28.17.27 23.218.27 17.11c0-6.108 4.892-11.06 10.928-11.06zm.135 1.638c-5.216 0-9.444 4.28-9.444 9.559 0 5.279 4.228 9.558 9.444 9.558 5.216 0 9.444-4.28 9.444-9.558 0-5.28-4.228-9.559-9.444-9.559z" fill="#F9E813"/><path d="M5.18 10.288v8.87c.584 3.51 2.55 5.265 5.9 5.265 3.35 0 5.318-1.755 5.902-5.266v-8.869H5.18z" fill="#fff"/><path d="M4.37 9.469h13.421v9.757l-.011.067c-.649 3.899-2.947 5.95-6.7 5.95-3.752 0-6.05-2.051-6.699-5.95l-.01-.067V9.469z" fill="#C51918"/><path d="M7.44 12.45h7.282v6.29c-.36 2.166-1.574 3.25-3.64 3.25-2.068 0-3.281-1.084-3.642-3.25v-6.29z" fill="#F7FCFF"/><path d="M5.666 10.145H6.69v.683H5.666v-.683z" fill="#F9E813"/><path d="M5.126 10.418h1.889v.341H5.126v-.341z" fill="#060101"/><path d="M5.126 10.691H6.15v.342H5.126v-.342zM6.205 10.691H7.23v.342H6.205v-.342zM5.126 11.51h.683v1.024h-.683V11.51zM6.476 11.51h.682v1.025h-.682V11.51zM5.936 11.51h.34v1.024h-.34V11.51z" fill="#F9E813"/><path d="M5.126 11.237h1.889v.342H5.126v-.342zM5.126 12.057h1.889v.341H5.126v-.341z" fill="#060101"/><path d="M5.396 10.964h.34v.342h-.34v-.342zM6.476 10.964h.341v.342h-.341v-.342zM5.936 10.691h.34v.683h-.34v-.683zM10.793 10.145h1.024v.683h-1.024v-.683z" fill="#F9E813"/><path d="M10.253 10.418h1.889v.341h-1.89v-.341z" fill="#060101"/><path d="M10.253 10.691h1.024v.342h-1.024v-.342zM11.332 10.691h1.024v.342h-1.024v-.342zM10.253 11.51h.683v1.024h-.683V11.51zM11.602 11.51h.683v1.025h-.683V11.51zM11.063 11.51h.34v1.024h-.34V11.51z" fill="#F9E813"/><path d="M10.253 11.237h1.889v.342h-1.89v-.342zM10.253 12.057h1.889v.341h-1.89v-.341z" fill="#060101"/><path d="M10.523 10.964h.34v.342h-.34v-.342zM11.602 10.964h.342v.342h-.342v-.342zM11.063 10.691h.34v.683h-.34v-.683zM15.65 10.145h1.024v.683H15.65v-.683z" fill="#F9E813"/><path d="M15.11 10.418H17v.341h-1.89v-.341z" fill="#060101"/><path d="M15.11 10.691h1.024v.342H15.11v-.342zM16.19 10.691h1.023v.342H16.19v-.342zM15.11 11.51h.683v1.024h-.683V11.51zM16.46 11.51h.683v1.025h-.683V11.51zM15.92 11.51h.341v1.024h-.341V11.51z" fill="#F9E813"/><path d="M15.11 11.237H17v.342h-1.89v-.342zM15.11 12.057H17v.341h-1.89v-.341z" fill="#060101"/><path d="M15.38 10.964h.341v.342h-.341v-.342zM16.46 10.964h.341v.342h-.341v-.342zM15.92 10.691h.341v.683h-.341v-.683zM15.65 15.06h1.024v.683H15.65v-.683z" fill="#F9E813"/><path d="M15.11 15.334H17v.34h-1.89v-.34z" fill="#060101"/><path d="M15.11 15.607h1.024v.341H15.11v-.341zM16.19 15.606h1.023v.342H16.19v-.342zM15.11 16.426h.683v1.024h-.683v-1.024zM16.46 16.426h.683v1.024h-.683v-1.024zM15.92 16.426h.341v1.024h-.341v-1.024z" fill="#F9E813"/><path d="M15.11 16.153H17v.341h-1.89v-.341zM15.11 16.972H17v.341h-1.89v-.34z" fill="#060101"/><path d="M15.38 15.88h.341v.341h-.341v-.341zM16.46 15.88h.341v.341h-.341v-.341zM15.92 15.607h.341v.683h-.341v-.683zM5.666 15.06H6.69v.683H5.666v-.683z" fill="#F9E813"/><path d="M5.126 15.334h1.889v.34H5.126v-.34z" fill="#060101"/><path d="M5.126 15.607H6.15v.341H5.126v-.341zM6.205 15.606H7.23v.342H6.205v-.342zM5.126 16.426h.683v1.024h-.683v-1.024zM6.476 16.426h.682v1.024h-.682v-1.024zM5.936 16.426h.34v1.024h-.34v-1.024z" fill="#F9E813"/><path d="M5.126 16.153h1.889v.341H5.126v-.341zM5.126 16.972h1.889v.341H5.126v-.34z" fill="#060101"/><path d="M5.396 15.88h.34v.341h-.34v-.341zM6.476 15.88h.341v.341h-.341v-.341zM5.936 15.607h.34v.683h-.34v-.683zM6.322 21.223l.659-.785.523.439-.659.785-.523-.44z" fill="#F9E813"/><path d="m6.185 21.811 1.214-1.446.261.219-1.214 1.447-.261-.22z" fill="#060101"/><path d="m6.394 21.987.658-.784.261.22-.658.784-.261-.22zM7.088 21.16l.658-.784.262.22-.659.784-.261-.22zM7.021 22.514l.44-.523.784.658-.439.523-.785-.658zM7.889 21.48l.439-.523.784.659-.439.523-.784-.659zM7.542 21.894l.22-.262.784.658-.22.262-.784-.658z" fill="#F9E813"/><path d="m6.813 22.338 1.214-1.447.261.22-1.214 1.447-.261-.22zM7.44 22.865l1.215-1.447.261.22-1.214 1.446-.262-.22z" fill="#060101"/><path d="m6.776 21.956.22-.261.261.219-.22.261-.26-.219zM7.47 21.13l.22-.262.262.22-.22.26-.261-.219zM6.914 21.367l.22-.261.522.438-.219.262-.523-.439zM15.552 20.602l.658.785-.523.439-.658-.785.523-.439z" fill="#F9E813"/><path d="m14.996 20.365 1.214 1.447-.261.22-1.214-1.448.261-.22z" fill="#060101"/><path d="m14.787 20.54.658.785-.261.219-.658-.785.261-.219zM15.48 21.367l.659.785-.262.22-.658-.785.261-.22zM14.16 21.067l.438.523-.785.658-.438-.523.784-.658zM15.026 22.1l.44.524-.785.658-.44-.523.785-.658zM14.68 21.687l.22.261-.785.659-.22-.262.785-.658z" fill="#F9E813"/><path d="m14.368 20.891 1.214 1.447-.261.22-1.214-1.448.261-.219zM13.74 21.418l1.214 1.447-.261.22-1.214-1.448.261-.219z" fill="#060101"/><path d="m14.751 20.922.22.262-.262.22-.22-.262.262-.22zM15.444 21.749l.22.262-.262.219-.22-.262.262-.219zM15.307 21.16l.22.262-.524.438-.22-.261.524-.439z" fill="#F9E813"/><path d="M12.123 13.15v1.361c-.092.47-.404.704-.935.704-.53 0-.843-.235-.935-.704V13.15h1.87zm-1.33 1.365a.271.271 0 0 0-.27.273c0 .15.12.273.27.273.149 0 .27-.122.27-.273 0-.15-.121-.273-.27-.273zm.81 0a.271.271 0 0 0-.27.273c0 .15.12.273.27.273.148 0 .269-.122.269-.273 0-.15-.12-.273-.27-.273zm-.406-.546c-.149 0-.27.122-.27.273 0 .15.121.273.27.273.15 0 .27-.122.27-.273 0-.151-.12-.273-.27-.273zm-.404-.546a.271.271 0 0 0-.27.273c0 .15.12.273.27.273.149 0 .27-.123.27-.273 0-.151-.121-.274-.27-.274zm.81 0a.271.271 0 0 0-.27.273c0 .15.12.273.27.273.148 0 .269-.123.269-.273 0-.151-.12-.274-.27-.274zM12.123 16.153v1.362c-.092.47-.404.704-.935.704-.53 0-.843-.235-.935-.704v-1.362h1.87zm-1.33 1.366a.271.271 0 0 0-.27.273c0 .15.12.273.27.273.149 0 .27-.122.27-.273 0-.151-.121-.273-.27-.273zm.81 0a.271.271 0 0 0-.27.273c0 .15.12.273.27.273.148 0 .269-.122.269-.273 0-.151-.12-.273-.27-.273zm-.406-.546c-.149 0-.27.122-.27.273 0 .15.121.273.27.273.15 0 .27-.122.27-.273 0-.151-.12-.273-.27-.273zm-.404-.547a.271.271 0 0 0-.27.274c0 .15.12.273.27.273.149 0 .27-.123.27-.273 0-.151-.121-.274-.27-.274zm.81 0a.271.271 0 0 0-.27.274c0 .15.12.273.27.273.148 0 .269-.123.269-.273 0-.151-.12-.274-.27-.274zM14.552 16.153v1.362c-.092.47-.404.704-.935.704s-.843-.235-.935-.704v-1.362h1.87zm-1.33 1.366a.271.271 0 0 0-.27.273c0 .15.12.273.27.273.148 0 .27-.122.27-.273 0-.151-.122-.273-.27-.273zm.809 0a.271.271 0 0 0-.27.273c0 .15.12.273.27.273.149 0 .27-.122.27-.273 0-.151-.121-.273-.27-.273zm-.405-.546a.272.272 0 0 0-.27.273c0 .15.121.273.27.273.15 0 .27-.122.27-.273 0-.151-.12-.273-.27-.273zm-.405-.547a.271.271 0 0 0-.27.274c0 .15.121.273.27.273.15 0 .27-.123.27-.273 0-.151-.12-.274-.27-.274zm.81 0a.271.271 0 0 0-.27.274c0 .15.12.273.27.273.149 0 .27-.123.27-.273 0-.151-.121-.274-.27-.274zM9.696 16.153v1.362c-.093.47-.405.704-.936.704-.53 0-.842-.235-.935-.704v-1.362h1.87zM8.365 17.52a.271.271 0 0 0-.27.273c0 .15.12.273.27.273.149 0 .27-.122.27-.273 0-.151-.121-.273-.27-.273zm.81 0a.271.271 0 0 0-.27.273c0 .15.12.273.27.273.148 0 .27-.122.27-.273 0-.151-.122-.273-.27-.273zm-.405-.546a.272.272 0 0 0-.27.273c0 .15.12.273.27.273.149 0 .27-.122.27-.273 0-.151-.121-.273-.27-.273zm-.405-.547a.272.272 0 0 0-.27.274c0 .15.12.273.27.273.149 0 .27-.123.27-.273 0-.151-.121-.274-.27-.274zm.81 0a.272.272 0 0 0-.27.274c0 .15.12.273.27.273.148 0 .27-.123.27-.273 0-.151-.122-.274-.27-.274zM12.123 19.157v1.362c-.092.47-.404.704-.935.704-.53 0-.843-.235-.935-.704v-1.362h1.87zm-1.33 1.366a.271.271 0 0 0-.27.273c0 .15.12.273.27.273.149 0 .27-.122.27-.273 0-.151-.121-.273-.27-.273zm.81 0a.271.271 0 0 0-.27.273c0 .15.12.273.27.273.148 0 .269-.122.269-.273 0-.151-.12-.273-.27-.273zm-.406-.546c-.149 0-.27.122-.27.273 0 .15.121.273.27.273.15 0 .27-.123.27-.273 0-.151-.12-.273-.27-.273zm-.404-.547a.271.271 0 0 0-.27.273c0 .151.12.274.27.274.149 0 .27-.123.27-.274 0-.15-.121-.273-.27-.273zm.81 0a.271.271 0 0 0-.27.273c0 .151.12.274.27.274.148 0 .269-.123.269-.274 0-.15-.12-.273-.27-.273z" fill="#013399"/></g></g><mask id="n" style="mask-type:alpha" maskUnits="userSpaceOnUse" x="0" y="0" width="34" height="35"><path d="M17 34.109c9.389 0 17-7.611 17-17s-7.611-17-17-17-17 7.611-17 17 7.611 17 17 17z" fill="#fff"/></mask><g mask="url(#n)"><path d="M37.966.109H-3.967a1.7 1.7 0 0 0-1.7 1.7v30.6a1.7 1.7 0 0 0 1.7 1.7h41.933a1.7 1.7 0 0 0 1.7-1.7v-30.6a1.7 1.7 0 0 0-1.7-1.7z" fill="#000"/><mask id="o" style="mask-type:alpha" maskUnits="userSpaceOnUse" x="-6" y="0" width="46" height="35"><path d="M37.966.109H-3.967a1.7 1.7 0 0 0-1.7 1.7v30.6a1.7 1.7 0 0 0 1.7 1.7h41.933a1.7 1.7 0 0 0 1.7-1.7v-30.6a1.7 1.7 0 0 0-1.7-1.7z" fill="#fff"/></mask><g mask="url(#o)"><mask id="p" style="mask-type:alpha" maskUnits="userSpaceOnUse" x="-6" y="0" width="46" height="35"><path d="M39.666.109H-5.667v34h45.333v-34z" fill="#fff"/></mask><g mask="url(#p)"><path d="M39.666.109H-5.667v34h45.333v-34z" fill="#093"/><mask id="q" style="mask-type:alpha" maskUnits="userSpaceOnUse" x="-6" y="0" width="46" height="35"><path d="M39.666.109H-5.667v34h45.333v-34z" fill="#fff"/></mask><g mask="url(#q)"><path d="m16.895 5.356 17.286 12.047-17.52 11.282L-.272 17.17 16.895 5.355z" fill="#000"/><path fill-rule="evenodd" clip-rule="evenodd" d="m16.895 5.356 17.286 12.047-17.52 11.282L-.272 17.17 16.895 5.355z" fill="#FFD221"/><path fill-rule="evenodd" clip-rule="evenodd" d="m16.895 5.356 17.286 12.047-17.52 11.282L-.272 17.17 16.895 5.355z" fill="url(#r)"/><path d="M17 24.476a7.083 7.083 0 1 0 0-14.167 7.083 7.083 0 0 0 0 14.167z" fill="#2E42A5"/><mask id="s" style="mask-type:alpha" maskUnits="userSpaceOnUse" x="9" y="10" width="16" height="15"><path d="M17 24.476a7.083 7.083 0 1 0 0-14.167 7.083 7.083 0 0 0 0 14.167z" fill="#fff"/></mask><g mask="url(#s)"><path d="m14.704 20.75-.316.166.06-.352-.256-.25.354-.051.158-.32.159.32.353.051-.256.25.06.352-.316-.166z" fill="#F7FCFF"/></g><mask id="t" style="mask-type:alpha" maskUnits="userSpaceOnUse" x="9" y="10" width="16" height="15"><path d="M17 24.476a7.083 7.083 0 1 0 0-14.167 7.083 7.083 0 0 0 0 14.167z" fill="#fff"/></mask><g mask="url(#t)"><path d="m17.537 20.75-.316.166.06-.352-.256-.25.354-.051.158-.32.159.32.353.051-.256.25.06.352-.316-.166z" fill="#F7FCFF"/></g><mask id="u" style="mask-type:alpha" maskUnits="userSpaceOnUse" x="9" y="10" width="16" height="15"><path d="M17 24.476a7.083 7.083 0 1 0 0-14.167 7.083 7.083 0 0 0 0 14.167z" fill="#fff"/></mask><g mask="url(#u)"><path d="m17.537 22.45-.316.166.06-.352-.256-.25.354-.05.158-.321.159.32.353.052-.256.25.06.351-.316-.166z" fill="#F7FCFF"/></g><mask id="v" style="mask-type:alpha" maskUnits="userSpaceOnUse" x="9" y="10" width="16" height="15"><path d="M17 24.476a7.083 7.083 0 1 0 0-14.167 7.083 7.083 0 0 0 0 14.167z" fill="#fff"/></mask><g mask="url(#v)"><path d="m16.121 16.5-.316.166.06-.352-.256-.25.354-.051.158-.32.159.32.353.051-.256.25.06.352-.316-.166z" fill="#F7FCFF"/></g><mask id="w" style="mask-type:alpha" maskUnits="userSpaceOnUse" x="9" y="10" width="16" height="15"><path d="M17 24.476a7.083 7.083 0 1 0 0-14.167 7.083 7.083 0 0 0 0 14.167z" fill="#fff"/></mask><g mask="url(#w)"><path d="m16.121 19.333-.316.166.06-.352-.256-.25.354-.051.158-.32.159.32.353.051-.256.25.06.352-.316-.166z" fill="#F7FCFF"/></g><mask id="x" style="mask-type:alpha" maskUnits="userSpaceOnUse" x="9" y="10" width="16" height="15"><path d="M17 24.476a7.083 7.083 0 1 0 0-14.167 7.083 7.083 0 0 0 0 14.167z" fill="#fff"/></mask><g mask="url(#x)"><path d="m14.138 17.917-.316.166.06-.352-.256-.25.354-.051.158-.32.158.32.354.051-.256.25.06.352-.316-.166z" fill="#F7FCFF"/></g><mask id="y" style="mask-type:alpha" maskUnits="userSpaceOnUse" x="9" y="10" width="16" height="15"><path d="M17 24.476a7.083 7.083 0 1 0 0-14.167 7.083 7.083 0 0 0 0 14.167z" fill="#fff"/></mask><g mask="url(#y)"><path d="m12.155 19.05-.317.166.06-.352-.255-.25.353-.051.159-.32.158.32.353.051-.255.25.06.352-.316-.166z" fill="#F7FCFF"/></g><mask id="z" style="mask-type:alpha" maskUnits="userSpaceOnUse" x="9" y="10" width="16" height="15"><path d="M17 24.476a7.083 7.083 0 1 0 0-14.167 7.083 7.083 0 0 0 0 14.167z" fill="#fff"/></mask><g mask="url(#z)"><path d="m18.671 14.233-.316.167.06-.353-.256-.25.354-.05.158-.321.158.32.354.052-.256.25.06.352-.316-.167z" fill="#F7FCFF"/></g><mask id="A" style="mask-type:alpha" maskUnits="userSpaceOnUse" x="9" y="10" width="16" height="15"><path d="M17 24.476a7.083 7.083 0 1 0 0-14.167 7.083 7.083 0 0 0 0 14.167z" fill="#fff"/></mask><g mask="url(#A)"><path d="m8.393 15.689.213-2.826c6.797.513 12.161 2.748 16.026 6.723l-2.031 1.975c-3.35-3.445-8.063-5.41-14.208-5.872z" fill="#F7FCFF"/></g><mask id="B" style="mask-type:alpha" maskUnits="userSpaceOnUse" x="9" y="10" width="16" height="15"><path d="M17 24.476a7.083 7.083 0 1 0 0-14.167 7.083 7.083 0 0 0 0 14.167z" fill="#fff"/></mask><g mask="url(#B)"><path d="m11.743 15.13.073-.705c4.382.454 8.14 2.132 11.264 5.031l-.482.52c-3.01-2.794-6.624-4.408-10.855-4.847z" fill="#093"/></g></g></g></g><mask id="C" style="mask-type:alpha" maskUnits="userSpaceOnUse" x="-6" y="0" width="46" height="35"><path d="M37.966.109H-3.967a1.7 1.7 0 0 0-1.7 1.7v30.6a1.7 1.7 0 0 0 1.7 1.7h41.933a1.7 1.7 0 0 0 1.7-1.7v-30.6a1.7 1.7 0 0 0-1.7-1.7z" fill="#fff"/></mask><g mask="url(#C)"><path d="M37.258.817H-3.26a1.7 1.7 0 0 0-1.7 1.7v29.184a1.7 1.7 0 0 0 1.7 1.7h40.517a1.7 1.7 0 0 0 1.7-1.7V2.517a1.7 1.7 0 0 0-1.7-1.7z" stroke="#000" stroke-opacity=".1"/></g></g><defs><linearGradient id="r" x1="16.955" y1="28.685" x2="16.955" y2="5.356" gradientUnits="userSpaceOnUse"><stop stop-color="#FFC600"/><stop offset="1" stop-color="#FFDE42"/></linearGradient></defs></svg>