<svg width="34" height="35" fill="none" xmlns="http://www.w3.org/2000/svg"><mask id="a" style="mask-type:alpha" maskUnits="userSpaceOnUse" x="0" y="0" width="34" height="35"><path d="M17 34.568c9.389 0 17-7.61 17-17 0-9.388-7.611-17-17-17s-17 7.612-17 17c0 9.39 7.611 17 17 17z" fill="#fff"/></mask><g mask="url(#a)"><path d="M38.019.568h-41.96a1.7 1.7 0 0 0-1.7 1.7v30.6a1.7 1.7 0 0 0 1.7 1.7h41.96a1.7 1.7 0 0 0 1.7-1.7v-30.6a1.7 1.7 0 0 0-1.7-1.7z" fill="#000"/><mask id="b" style="mask-type:alpha" maskUnits="userSpaceOnUse" x="-6" y="0" width="46" height="35"><path d="M38.019.568h-41.96a1.7 1.7 0 0 0-1.7 1.7v30.6a1.7 1.7 0 0 0 1.7 1.7h41.96a1.7 1.7 0 0 0 1.7-1.7v-30.6a1.7 1.7 0 0 0-1.7-1.7z" fill="#fff"/></mask><g mask="url(#b)"><mask id="c" style="mask-type:alpha" maskUnits="userSpaceOnUse" x="-6" y="0" width="46" height="35"><path d="M39.718.568H-5.64v34h45.36v-34z" fill="#fff"/></mask><g mask="url(#c)"><path d="M-5.64.568h45.358v34H-5.64v-34z" fill="#E31D1C"/><path d="m15.643 7.012-1.432.864.327-1.686-1.192-1.262 1.614-.068.683-1.574.683 1.574h1.612l-1.19 1.33.359 1.686-1.464-.864zM4.307 14.178.223 16.375l.931-4.287-3.4-3.209 4.604-.173 1.949-4.004 1.948 4.004h4.596L7.46 12.088l1.021 4.287-4.173-2.197zM18.478 12.678l-1.431.864.326-1.686-1.192-1.261 1.614-.069.683-1.574.683 1.574h1.612l-1.19 1.33.359 1.686-1.464-.864zM17.061 18.345l-1.431.864.326-1.686-1.192-1.261 1.614-.069.683-1.574.683 1.574h1.612l-1.19 1.33.359 1.686-1.464-.864zM12.808 22.595l-1.431.864.326-1.686-1.192-1.261 1.614-.069.683-1.574.684 1.574h1.611l-1.19 1.33.359 1.686-1.464-.864z" fill="#FECA00"/></g></g><mask id="d" style="mask-type:alpha" maskUnits="userSpaceOnUse" x="-6" y="0" width="46" height="35"><path d="M38.019.568h-41.96a1.7 1.7 0 0 0-1.7 1.7v30.6a1.7 1.7 0 0 0 1.7 1.7h41.96a1.7 1.7 0 0 0 1.7-1.7v-30.6a1.7 1.7 0 0 0-1.7-1.7z" fill="#fff"/></mask><g mask="url(#d)"><path d="M37.31 1.276H-3.232a1.7 1.7 0 0 0-1.7 1.7V32.16a1.7 1.7 0 0 0 1.7 1.7H37.31a1.7 1.7 0 0 0 1.7-1.7V2.976a1.7 1.7 0 0 0-1.7-1.7z" stroke="#000" stroke-opacity=".1"/></g></g></svg>