<svg width="34" height="35" viewBox="0 0 34 35" fill="none" xmlns="http://www.w3.org/2000/svg">
<mask id="mask0_820_16018" style="mask-type:alpha" maskUnits="userSpaceOnUse" x="0" y="0" width="34" height="35">
<path d="M17 34.9736C26.3888 34.9736 34 27.3625 34 17.9736C34 8.58479 26.3888 0.973633 17 0.973633C7.61116 0.973633 0 8.58479 0 17.9736C0 27.3625 7.61116 34.9736 17 34.9736Z" fill="white"/>
</mask>
<g mask="url(#mask0_820_16018)">
<mask id="mask1_820_16018" style="mask-type:alpha" maskUnits="userSpaceOnUse" x="-6" y="0" width="46" height="35">
<path d="M39.6663 0.973633H-5.66699V34.9736H39.6663V0.973633Z" fill="white"/>
</mask>
<g mask="url(#mask1_820_16018)">
<path d="M5.66602 0.973633H39.666V34.9736H5.66602V0.973633Z" fill="#EF0000"/>
<path d="M-5.66699 0.973633H11.333V34.9736H-5.66699V0.973633Z" fill="#2F8D00"/>
<mask id="mask2_820_16018" style="mask-type:alpha" maskUnits="userSpaceOnUse" x="0" y="6" width="23" height="24">
<path d="M11.1981 29.0341C5.16242 29.0341 0.269531 24.0822 0.269531 17.9738C0.269531 11.8654 5.16242 6.91357 11.1981 6.91357C17.2338 6.91357 22.1267 11.8654 22.1267 17.9738C22.1267 24.0822 17.2338 29.0341 11.1981 29.0341Z" fill="white"/>
</mask>
<g mask="url(#mask2_820_16018)">
<path d="M10.5234 6.64062H11.9401V10.4639H10.5234V6.64062Z" fill="#FFE017"/>
</g>
<mask id="mask3_820_16018" style="mask-type:alpha" maskUnits="userSpaceOnUse" x="0" y="6" width="23" height="24">
<path d="M11.1981 29.0341C5.16242 29.0341 0.269531 24.0822 0.269531 17.9738C0.269531 11.8654 5.16242 6.91357 11.1981 6.91357C17.2338 6.91357 22.1267 11.8654 22.1267 17.9738C22.1267 24.0822 17.2338 29.0341 11.1981 29.0341Z" fill="white"/>
</mask>
<g mask="url(#mask3_820_16018)">
<path d="M10.5234 25.7568H11.9401V29.307H10.5234V25.7568Z" fill="#FFE017"/>
</g>
<mask id="mask4_820_16018" style="mask-type:alpha" maskUnits="userSpaceOnUse" x="0" y="6" width="23" height="24">
<path d="M11.1981 29.0341C5.16242 29.0341 0.269531 24.0822 0.269531 17.9738C0.269531 11.8654 5.16242 6.91357 11.1981 6.91357C17.2338 6.91357 22.1267 11.8654 22.1267 17.9738C22.1267 24.0822 17.2338 29.0341 11.1981 29.0341Z" fill="white"/>
</mask>
<g mask="url(#mask4_820_16018)">
<path d="M0.444904 18.5458L0.0488281 17.5297C4.41951 15.7848 7.7183 14.6595 9.95662 14.1524C13.2406 13.4083 16.849 12.8579 20.7819 12.5005L20.8784 13.5885C16.9906 13.9417 13.4285 14.4852 10.1924 15.2184C8.02074 15.7104 4.76776 16.8201 0.444904 18.5458Z" fill="#FFE017"/>
</g>
<mask id="mask5_820_16018" style="mask-type:alpha" maskUnits="userSpaceOnUse" x="0" y="6" width="23" height="24">
<path d="M11.1981 29.0341C5.16242 29.0341 0.269531 24.0822 0.269531 17.9738C0.269531 11.8654 5.16242 6.91357 11.1981 6.91357C17.2338 6.91357 22.1267 11.8654 22.1267 17.9738C22.1267 24.0822 17.2338 29.0341 11.1981 29.0341Z" fill="white"/>
</mask>
<g mask="url(#mask5_820_16018)">
<path d="M21.4495 11.8307L21.1281 12.8735C17.8248 11.8307 15.134 11.3824 13.0656 11.5213L12.9941 10.4313C15.2149 10.2822 18.03 10.7512 21.4495 11.8307Z" fill="#FFE017"/>
</g>
<mask id="mask6_820_16018" style="mask-type:alpha" maskUnits="userSpaceOnUse" x="0" y="6" width="23" height="24">
<path d="M11.1981 29.0341C5.16242 29.0341 0.269531 24.0822 0.269531 17.9738C0.269531 11.8654 5.16242 6.91357 11.1981 6.91357C17.2338 6.91357 22.1267 11.8654 22.1267 17.9738C22.1267 24.0822 17.2338 29.0341 11.1981 29.0341Z" fill="white"/>
</mask>
<g mask="url(#mask6_820_16018)">
<path d="M22.5918 17.6618L21.9812 18.5626C20.2972 17.3935 18.2226 16.8062 15.7432 16.8062V15.7139C18.4311 15.7139 20.7187 16.3614 22.5918 17.6618Z" fill="#FFE017"/>
</g>
<mask id="mask7_820_16018" style="mask-type:alpha" maskUnits="userSpaceOnUse" x="0" y="6" width="23" height="24">
<path d="M11.1981 29.0341C5.16242 29.0341 0.269531 24.0822 0.269531 17.9738C0.269531 11.8654 5.16242 6.91357 11.1981 6.91357C17.2338 6.91357 22.1267 11.8654 22.1267 17.9738C22.1267 24.0822 17.2338 29.0341 11.1981 29.0341Z" fill="white"/>
</mask>
<g mask="url(#mask7_820_16018)">
<path d="M21.6779 17.9888L21.9569 19.044C18.3265 20.0274 14.9181 20.5853 11.7314 20.7167C8.52271 20.8489 4.78291 20.289 0.508789 19.0412L0.807966 17.9916C4.97821 19.2091 8.60578 19.7522 11.6875 19.6252C14.7911 19.4972 18.1214 18.9521 21.6779 17.9888Z" fill="#FFE017"/>
</g>
<mask id="mask8_820_16018" style="mask-type:alpha" maskUnits="userSpaceOnUse" x="0" y="6" width="23" height="24">
<path d="M11.1981 29.0341C5.16242 29.0341 0.269531 24.0822 0.269531 17.9738C0.269531 11.8654 5.16242 6.91357 11.1981 6.91357C17.2338 6.91357 22.1267 11.8654 22.1267 17.9738C22.1267 24.0822 17.2338 29.0341 11.1981 29.0341Z" fill="white"/>
</mask>
<g mask="url(#mask8_820_16018)">
<path d="M21.2666 23.1247L19.5605 24.8738C16.3182 21.6345 13.4637 19.3183 11.0146 17.9266C8.52365 16.5111 5.27525 15.0738 1.27441 13.6205L2.09487 11.3071C6.2137 12.8033 9.58159 14.2935 12.2036 15.7835C14.8674 17.2972 17.8826 19.7438 21.2666 23.1247Z" fill="#FFE017"/>
</g>
<mask id="mask9_820_16018" style="mask-type:alpha" maskUnits="userSpaceOnUse" x="0" y="6" width="23" height="24">
<path d="M11.1981 29.0341C5.16242 29.0341 0.269531 24.0822 0.269531 17.9738C0.269531 11.8654 5.16242 6.91357 11.1981 6.91357C17.2338 6.91357 22.1267 11.8654 22.1267 17.9738C22.1267 24.0822 17.2338 29.0341 11.1981 29.0341Z" fill="white"/>
</mask>
<g mask="url(#mask9_820_16018)">
<path d="M2.06572 24.1155L1.41992 23.2402C1.51011 23.172 1.67102 23.0584 1.89273 22.9143C2.25879 22.6765 2.66529 22.4391 3.10265 22.2172C4.30725 21.6062 5.51558 21.2246 6.66806 21.1896C6.72442 21.1879 6.78055 21.187 6.83643 21.187V22.2794C6.79141 22.2794 6.74609 22.2801 6.70048 22.2815C5.72926 22.311 4.66269 22.6478 3.58631 23.1938C3.18511 23.3973 2.8113 23.6156 2.47581 23.8336C2.35903 23.9095 2.25571 23.9796 2.16717 24.0422C2.11555 24.0786 2.0813 24.1037 2.06572 24.1155Z" fill="#FFE017"/>
</g>
<mask id="mask10_820_16018" style="mask-type:alpha" maskUnits="userSpaceOnUse" x="0" y="6" width="23" height="24">
<path d="M11.1981 29.0341C5.16242 29.0341 0.269531 24.0822 0.269531 17.9738C0.269531 11.8654 5.16242 6.91357 11.1981 6.91357C17.2338 6.91357 22.1267 11.8654 22.1267 17.9738C22.1267 24.0822 17.2338 29.0341 11.1981 29.0341Z" fill="white"/>
</mask>
<g mask="url(#mask10_820_16018)">
<path d="M2.56738 24.4939L2.8392 23.4367C6.4377 24.3844 9.21194 24.8566 11.1481 24.8566C13.077 24.8566 15.948 24.2996 19.7424 23.1816L20.0441 24.2305C16.1599 25.3749 13.2008 25.949 11.1481 25.949C9.10258 25.949 6.24696 25.4629 2.56738 24.4939Z" fill="#FFE017"/>
</g>
<mask id="mask11_820_16018" style="mask-type:alpha" maskUnits="userSpaceOnUse" x="0" y="6" width="23" height="24">
<path d="M11.1981 29.0341C5.16242 29.0341 0.269531 24.0822 0.269531 17.9738C0.269531 11.8654 5.16242 6.91357 11.1981 6.91357C17.2338 6.91357 22.1267 11.8654 22.1267 17.9738C22.1267 24.0822 17.2338 29.0341 11.1981 29.0341Z" fill="white"/>
</mask>
<g mask="url(#mask11_820_16018)">
<path d="M1.16504 14.7076L2.87506 12.9624L5.37877 15.4751L3.66874 17.2203L1.16504 14.7076Z" fill="#FFE017"/>
</g>
<mask id="mask12_820_16018" style="mask-type:alpha" maskUnits="userSpaceOnUse" x="0" y="6" width="23" height="24">
<path d="M11.1981 29.0341C5.16242 29.0341 0.269531 24.0822 0.269531 17.9738C0.269531 11.8654 5.16242 6.91357 11.1981 6.91357C17.2338 6.91357 22.1267 11.8654 22.1267 17.9738C22.1267 24.0822 17.2338 29.0341 11.1981 29.0341Z" fill="white"/>
</mask>
<g mask="url(#mask12_820_16018)">
<path d="M15.3506 23.4248L16.6225 21.3311L20.5943 23.8024L19.3224 25.8961L15.3506 23.4248Z" fill="#FFE017"/>
</g>
<path d="M11.1981 6.91357C17.2338 6.91357 22.1267 11.8654 22.1267 17.9738C22.1267 24.0822 17.2338 29.0341 11.1981 29.0341C5.16242 29.0341 0.269531 24.0822 0.269531 17.9738C0.269531 11.8654 5.16242 6.91357 11.1981 6.91357ZM11.333 8.55213C6.117 8.55213 1.88858 12.8315 1.88858 18.1104C1.88858 23.3892 6.117 27.6686 11.333 27.6686C16.549 27.6686 20.7775 23.3892 20.7775 18.1104C20.7775 12.8315 16.549 8.55213 11.333 8.55213Z" fill="#F9E813"/>
<path d="M5.17969 11.1533V20.0227C5.76354 23.5333 7.73053 25.2886 11.0807 25.2886C14.4308 25.2886 16.3978 23.5333 16.9816 20.0227V11.1533H5.17969Z" fill="white"/>
<path d="M4.37012 10.334H17.7911V20.0911L17.7799 20.1586C17.1315 24.0568 14.8332 26.1078 11.0806 26.1078C7.32801 26.1078 5.02966 24.0568 4.38135 20.1586L4.37012 20.0911V10.334Z" fill="#C51918"/>
<path d="M7.44043 13.3145H14.7217V19.6057C14.3615 21.7716 13.1479 22.8546 11.0811 22.8546C9.01419 22.8546 7.80064 21.7716 7.44043 19.6057V13.3145Z" fill="#F7FCFF"/>
<path d="M5.66602 11.0103H6.69011V11.693H5.66602V11.0103Z" fill="#F9E813"/>
<path d="M5.12598 11.2832H7.01487V11.6246H5.12598V11.2832Z" fill="#060101"/>
<path d="M5.12598 11.5566H6.15007V11.898H5.12598V11.5566Z" fill="#F9E813"/>
<path d="M6.20508 11.5566H7.22917V11.898H6.20508V11.5566Z" fill="#F9E813"/>
<path d="M5.12598 12.3755H5.80871V13.3996H5.12598V12.3755Z" fill="#F9E813"/>
<path d="M6.47559 12.376H7.15832V13.4001H6.47559V12.376Z" fill="#F9E813"/>
<path d="M5.93555 12.3755H6.27691V13.3996H5.93555V12.3755Z" fill="#F9E813"/>
<path d="M5.12598 12.1025H7.01487V12.4439H5.12598V12.1025Z" fill="#060101"/>
<path d="M5.12598 12.9219H7.01487V13.2632H5.12598V12.9219Z" fill="#060101"/>
<path d="M5.39551 11.8296H5.73687V12.171H5.39551V11.8296Z" fill="#F9E813"/>
<path d="M6.47559 11.8296H6.81695V12.171H6.47559V11.8296Z" fill="#F9E813"/>
<path d="M5.93555 11.5566H6.27691V12.2394H5.93555V11.5566Z" fill="#F9E813"/>
<path d="M10.793 11.0103H11.8171V11.693H10.793V11.0103Z" fill="#F9E813"/>
<path d="M10.2529 11.2832H12.1418V11.6246H10.2529V11.2832Z" fill="#060101"/>
<path d="M10.2529 11.5566H11.277V11.898H10.2529V11.5566Z" fill="#F9E813"/>
<path d="M11.332 11.5566H12.3561V11.898H11.332V11.5566Z" fill="#F9E813"/>
<path d="M10.2529 12.3755H10.9357V13.3996H10.2529V12.3755Z" fill="#F9E813"/>
<path d="M11.6025 12.376H12.2853V13.4001H11.6025V12.376Z" fill="#F9E813"/>
<path d="M11.0625 12.3755H11.4039V13.3996H11.0625V12.3755Z" fill="#F9E813"/>
<path d="M10.2529 12.1025H12.1418V12.4439H10.2529V12.1025Z" fill="#060101"/>
<path d="M10.2529 12.9219H12.1418V13.2632H10.2529V12.9219Z" fill="#060101"/>
<path d="M10.5225 11.8296H10.8638V12.171H10.5225V11.8296Z" fill="#F9E813"/>
<path d="M11.6025 11.8296H11.9439V12.171H11.6025V11.8296Z" fill="#F9E813"/>
<path d="M11.0625 11.5566H11.4039V12.2394H11.0625V11.5566Z" fill="#F9E813"/>
<path d="M15.6504 11.0103H16.6745V11.693H15.6504V11.0103Z" fill="#F9E813"/>
<path d="M15.1104 11.2832H16.9992V11.6246H15.1104V11.2832Z" fill="#060101"/>
<path d="M15.1104 11.5566H16.1344V11.898H15.1104V11.5566Z" fill="#F9E813"/>
<path d="M16.1895 11.5566H17.2135V11.898H16.1895V11.5566Z" fill="#F9E813"/>
<path d="M15.1104 12.3755H15.7931V13.3996H15.1104V12.3755Z" fill="#F9E813"/>
<path d="M16.46 12.376H17.1427V13.4001H16.46V12.376Z" fill="#F9E813"/>
<path d="M15.9199 12.3755H16.2613V13.3996H15.9199V12.3755Z" fill="#F9E813"/>
<path d="M15.1104 12.1025H16.9992V12.4439H15.1104V12.1025Z" fill="#060101"/>
<path d="M15.1104 12.9219H16.9992V13.2632H15.1104V12.9219Z" fill="#060101"/>
<path d="M15.3799 11.8296H15.7212V12.171H15.3799V11.8296Z" fill="#F9E813"/>
<path d="M16.46 11.8296H16.8013V12.171H16.46V11.8296Z" fill="#F9E813"/>
<path d="M15.9199 11.5566H16.2613V12.2394H15.9199V11.5566Z" fill="#F9E813"/>
<path d="M15.6504 15.9258H16.6745V16.6085H15.6504V15.9258Z" fill="#F9E813"/>
<path d="M15.1104 16.1987H16.9992V16.5401H15.1104V16.1987Z" fill="#060101"/>
<path d="M15.1104 16.4722H16.1344V16.8135H15.1104V16.4722Z" fill="#F9E813"/>
<path d="M16.1895 16.4717H17.2135V16.813H16.1895V16.4717Z" fill="#F9E813"/>
<path d="M15.1104 17.291H15.7931V18.3151H15.1104V17.291Z" fill="#F9E813"/>
<path d="M16.46 17.291H17.1427V18.3151H16.46V17.291Z" fill="#F9E813"/>
<path d="M15.9199 17.291H16.2613V18.3151H15.9199V17.291Z" fill="#F9E813"/>
<path d="M15.1104 17.0181H16.9992V17.3594H15.1104V17.0181Z" fill="#060101"/>
<path d="M15.1104 17.8374H16.9992V18.1788H15.1104V17.8374Z" fill="#060101"/>
<path d="M15.3799 16.7451H15.7212V17.0865H15.3799V16.7451Z" fill="#F9E813"/>
<path d="M16.46 16.7451H16.8013V17.0865H16.46V16.7451Z" fill="#F9E813"/>
<path d="M15.9199 16.4722H16.2613V17.1549H15.9199V16.4722Z" fill="#F9E813"/>
<path d="M5.66602 15.9258H6.69011V16.6085H5.66602V15.9258Z" fill="#F9E813"/>
<path d="M5.12598 16.1987H7.01487V16.5401H5.12598V16.1987Z" fill="#060101"/>
<path d="M5.12598 16.4722H6.15007V16.8135H5.12598V16.4722Z" fill="#F9E813"/>
<path d="M6.20508 16.4717H7.22917V16.813H6.20508V16.4717Z" fill="#F9E813"/>
<path d="M5.12598 17.291H5.80871V18.3151H5.12598V17.291Z" fill="#F9E813"/>
<path d="M6.47559 17.291H7.15832V18.3151H6.47559V17.291Z" fill="#F9E813"/>
<path d="M5.93555 17.291H6.27691V18.3151H5.93555V17.291Z" fill="#F9E813"/>
<path d="M5.12598 17.0181H7.01487V17.3594H5.12598V17.0181Z" fill="#060101"/>
<path d="M5.12598 17.8374H7.01487V18.1788H5.12598V17.8374Z" fill="#060101"/>
<path d="M5.39551 16.7451H5.73687V17.0865H5.39551V16.7451Z" fill="#F9E813"/>
<path d="M6.47559 16.7451H6.81695V17.0865H6.47559V16.7451Z" fill="#F9E813"/>
<path d="M5.93555 16.4722H6.27691V17.1549H5.93555V16.4722Z" fill="#F9E813"/>
<path d="M6.32227 22.0879L6.98054 21.3034L7.50354 21.7422L6.84527 22.5267L6.32227 22.0879Z" fill="#F9E813"/>
<path d="M6.18457 22.6768L7.39872 21.2298L7.66023 21.4492L6.44607 22.8962L6.18457 22.6768Z" fill="#060101"/>
<path d="M6.39355 22.8525L7.05183 22.068L7.31333 22.2875L6.65506 23.072L6.39355 22.8525Z" fill="#F9E813"/>
<path d="M7.08789 22.0254L7.74617 21.2409L8.00767 21.4603L7.34939 22.2448L7.08789 22.0254Z" fill="#F9E813"/>
<path d="M7.02148 23.3789L7.46034 22.8559L8.24484 23.5142L7.80599 24.0372L7.02148 23.3789Z" fill="#F9E813"/>
<path d="M7.88867 22.3457L8.32752 21.8227L9.11203 22.481L8.67318 23.004L7.88867 22.3457Z" fill="#F9E813"/>
<path d="M7.54199 22.7588L7.76142 22.4973L8.54592 23.1556L8.3265 23.4171L7.54199 22.7588Z" fill="#F9E813"/>
<path d="M6.8125 23.2036L8.02665 21.7566L8.28816 21.9761L7.074 23.423L6.8125 23.2036Z" fill="#060101"/>
<path d="M7.44043 23.73L8.65458 22.283L8.91609 22.5024L7.70193 23.9494L7.44043 23.73Z" fill="#060101"/>
<path d="M6.77637 22.8213L6.99579 22.5598L7.25729 22.7792L7.03787 23.0407L6.77637 22.8213Z" fill="#F9E813"/>
<path d="M7.4707 21.9946L7.69013 21.7331L7.95163 21.9526L7.7322 22.2141L7.4707 21.9946Z" fill="#F9E813"/>
<path d="M6.91406 22.2324L7.13349 21.9709L7.65649 22.4098L7.43706 22.6713L6.91406 22.2324Z" fill="#F9E813"/>
<path d="M15.5518 21.4678L16.21 22.2523L15.687 22.6911L15.0288 21.9066L15.5518 21.4678Z" fill="#F9E813"/>
<path d="M14.9961 21.23L16.2102 22.677L15.9487 22.8964L14.7346 21.4494L14.9961 21.23Z" fill="#060101"/>
<path d="M14.7871 21.4053L15.4454 22.1898L15.1839 22.4092L14.5256 21.6247L14.7871 21.4053Z" fill="#F9E813"/>
<path d="M15.4805 22.2324L16.1387 23.0169L15.8772 23.2364L15.219 22.4518L15.4805 22.2324Z" fill="#F9E813"/>
<path d="M14.1592 21.9321L14.598 22.4551L13.8135 23.1134L13.3747 22.5904L14.1592 21.9321Z" fill="#F9E813"/>
<path d="M15.0264 22.9653L15.4652 23.4883L14.6807 24.1466L14.2419 23.6236L15.0264 22.9653Z" fill="#F9E813"/>
<path d="M14.6797 22.5522L14.8991 22.8137L14.1146 23.472L13.8952 23.2105L14.6797 22.5522Z" fill="#F9E813"/>
<path d="M14.3682 21.7563L15.5823 23.2033L15.3208 23.4227L14.1067 21.9758L14.3682 21.7563Z" fill="#060101"/>
<path d="M13.7402 22.2832L14.9544 23.7302L14.6929 23.9496L13.4787 22.5026L13.7402 22.2832Z" fill="#060101"/>
<path d="M14.751 21.7876L14.9704 22.0491L14.7089 22.2685L14.4895 22.007L14.751 21.7876Z" fill="#F9E813"/>
<path d="M15.4443 22.6143L15.6638 22.8758L15.4023 23.0952L15.1828 22.8337L15.4443 22.6143Z" fill="#F9E813"/>
<path d="M15.3066 22.0254L15.5261 22.2869L15.0031 22.7257L14.7836 22.4642L15.3066 22.0254Z" fill="#F9E813"/>
<path d="M12.1234 14.0146V15.3767C12.0309 15.8457 11.7191 16.0801 11.1882 16.0801C10.6572 16.0801 10.3455 15.8457 10.2529 15.3767V14.0146H12.1234ZM10.7926 15.3801C10.6436 15.3801 10.5228 15.5024 10.5228 15.6532C10.5228 15.804 10.6436 15.9263 10.7926 15.9263C10.9416 15.9263 11.0625 15.804 11.0625 15.6532C11.0625 15.5024 10.9416 15.3801 10.7926 15.3801ZM11.6021 15.3801C11.4531 15.3801 11.3323 15.5024 11.3323 15.6532C11.3323 15.804 11.4531 15.9263 11.6021 15.9263C11.7512 15.9263 11.872 15.804 11.872 15.6532C11.872 15.5024 11.7512 15.3801 11.6021 15.3801ZM11.1974 14.8339C11.0483 14.8339 10.9275 14.9562 10.9275 15.107C10.9275 15.2578 11.0483 15.3801 11.1974 15.3801C11.3464 15.3801 11.4672 15.2578 11.4672 15.107C11.4672 14.9562 11.3464 14.8339 11.1974 14.8339ZM10.7926 14.2877C10.6436 14.2877 10.5228 14.41 10.5228 14.5608C10.5228 14.7117 10.6436 14.8339 10.7926 14.8339C10.9416 14.8339 11.0625 14.7117 11.0625 14.5608C11.0625 14.41 10.9416 14.2877 10.7926 14.2877ZM11.6021 14.2877C11.4531 14.2877 11.3323 14.41 11.3323 14.5608C11.3323 14.7117 11.4531 14.8339 11.6021 14.8339C11.7512 14.8339 11.872 14.7117 11.872 14.5608C11.872 14.41 11.7512 14.2877 11.6021 14.2877Z" fill="#013399"/>
<path d="M12.1234 17.0186V18.3806C12.0309 18.8496 11.7191 19.084 11.1882 19.084C10.6572 19.084 10.3455 18.8496 10.2529 18.3806V17.0186H12.1234ZM10.7926 18.384C10.6436 18.384 10.5228 18.5063 10.5228 18.6571C10.5228 18.8079 10.6436 18.9302 10.7926 18.9302C10.9416 18.9302 11.0625 18.8079 11.0625 18.6571C11.0625 18.5063 10.9416 18.384 10.7926 18.384ZM11.6021 18.384C11.4531 18.384 11.3323 18.5063 11.3323 18.6571C11.3323 18.8079 11.4531 18.9302 11.6021 18.9302C11.7512 18.9302 11.872 18.8079 11.872 18.6571C11.872 18.5063 11.7512 18.384 11.6021 18.384ZM11.1974 17.8378C11.0483 17.8378 10.9275 17.9601 10.9275 18.1109C10.9275 18.2617 11.0483 18.384 11.1974 18.384C11.3464 18.384 11.4672 18.2617 11.4672 18.1109C11.4672 17.9601 11.3464 17.8378 11.1974 17.8378ZM10.7926 17.2916C10.6436 17.2916 10.5228 17.4139 10.5228 17.5647C10.5228 17.7156 10.6436 17.8378 10.7926 17.8378C10.9416 17.8378 11.0625 17.7156 11.0625 17.5647C11.0625 17.4139 10.9416 17.2916 10.7926 17.2916ZM11.6021 17.2916C11.4531 17.2916 11.3323 17.4139 11.3323 17.5647C11.3323 17.7156 11.4531 17.8378 11.6021 17.8378C11.7512 17.8378 11.872 17.7156 11.872 17.5647C11.872 17.4139 11.7512 17.2916 11.6021 17.2916Z" fill="#013399"/>
<path d="M14.5521 17.0186V18.3806C14.4596 18.8496 14.1478 19.084 13.6169 19.084C13.0859 19.084 12.7742 18.8496 12.6816 18.3806V17.0186H14.5521ZM13.2213 18.384C13.0723 18.384 12.9515 18.5063 12.9515 18.6571C12.9515 18.8079 13.0723 18.9302 13.2213 18.9302C13.3704 18.9302 13.4912 18.8079 13.4912 18.6571C13.4912 18.5063 13.3704 18.384 13.2213 18.384ZM14.0308 18.384C13.8818 18.384 13.761 18.5063 13.761 18.6571C13.761 18.8079 13.8818 18.9302 14.0308 18.9302C14.1799 18.9302 14.3007 18.8079 14.3007 18.6571C14.3007 18.5063 14.1799 18.384 14.0308 18.384ZM13.6261 17.8378C13.4771 17.8378 13.3562 17.9601 13.3562 18.1109C13.3562 18.2617 13.4771 18.384 13.6261 18.384C13.7751 18.384 13.8959 18.2617 13.8959 18.1109C13.8959 17.9601 13.7751 17.8378 13.6261 17.8378ZM13.2213 17.2916C13.0723 17.2916 12.9515 17.4139 12.9515 17.5647C12.9515 17.7156 13.0723 17.8378 13.2213 17.8378C13.3704 17.8378 13.4912 17.7156 13.4912 17.5647C13.4912 17.4139 13.3704 17.2916 13.2213 17.2916ZM14.0308 17.2916C13.8818 17.2916 13.761 17.4139 13.761 17.5647C13.761 17.7156 13.8818 17.8378 14.0308 17.8378C14.1799 17.8378 14.3007 17.7156 14.3007 17.5647C14.3007 17.4139 14.1799 17.2916 14.0308 17.2916Z" fill="#013399"/>
<path d="M9.69567 17.0186V18.3806C9.60313 18.8496 9.29139 19.084 8.76043 19.084C8.22948 19.084 7.91773 18.8496 7.8252 18.3806V17.0186H9.69567ZM8.36488 18.384C8.21585 18.384 8.09504 18.5063 8.09504 18.6571C8.09504 18.8079 8.21585 18.9302 8.36488 18.9302C8.51391 18.9302 8.63472 18.8079 8.63472 18.6571C8.63472 18.5063 8.51391 18.384 8.36488 18.384ZM9.1744 18.384C9.02537 18.384 8.90456 18.5063 8.90456 18.6571C8.90456 18.8079 9.02537 18.9302 9.1744 18.9302C9.32343 18.9302 9.44424 18.8079 9.44424 18.6571C9.44424 18.5063 9.32343 18.384 9.1744 18.384ZM8.76964 17.8378C8.62061 17.8378 8.4998 17.9601 8.4998 18.1109C8.4998 18.2617 8.62061 18.384 8.76964 18.384C8.91867 18.384 9.03948 18.2617 9.03948 18.1109C9.03948 17.9601 8.91867 17.8378 8.76964 17.8378ZM8.36488 17.2916C8.21585 17.2916 8.09504 17.4139 8.09504 17.5647C8.09504 17.7156 8.21585 17.8378 8.36488 17.8378C8.51391 17.8378 8.63472 17.7156 8.63472 17.5647C8.63472 17.4139 8.51391 17.2916 8.36488 17.2916ZM9.1744 17.2916C9.02537 17.2916 8.90456 17.4139 8.90456 17.5647C8.90456 17.7156 9.02537 17.8378 9.1744 17.8378C9.32343 17.8378 9.44424 17.7156 9.44424 17.5647C9.44424 17.4139 9.32343 17.2916 9.1744 17.2916Z" fill="#013399"/>
<path d="M12.1234 20.0225V21.3845C12.0309 21.8535 11.7191 22.0879 11.1882 22.0879C10.6572 22.0879 10.3455 21.8535 10.2529 21.3845V20.0225H12.1234ZM10.7926 21.3879C10.6436 21.3879 10.5228 21.5102 10.5228 21.661C10.5228 21.8118 10.6436 21.9341 10.7926 21.9341C10.9416 21.9341 11.0625 21.8118 11.0625 21.661C11.0625 21.5102 10.9416 21.3879 10.7926 21.3879ZM11.6021 21.3879C11.4531 21.3879 11.3323 21.5102 11.3323 21.661C11.3323 21.8118 11.4531 21.9341 11.6021 21.9341C11.7512 21.9341 11.872 21.8118 11.872 21.661C11.872 21.5102 11.7512 21.3879 11.6021 21.3879ZM11.1974 20.8417C11.0483 20.8417 10.9275 20.964 10.9275 21.1148C10.9275 21.2657 11.0483 21.3879 11.1974 21.3879C11.3464 21.3879 11.4672 21.2657 11.4672 21.1148C11.4672 20.964 11.3464 20.8417 11.1974 20.8417ZM10.7926 20.2956C10.6436 20.2956 10.5228 20.4178 10.5228 20.5686C10.5228 20.7195 10.6436 20.8417 10.7926 20.8417C10.9416 20.8417 11.0625 20.7195 11.0625 20.5686C11.0625 20.4178 10.9416 20.2956 10.7926 20.2956ZM11.6021 20.2956C11.4531 20.2956 11.3323 20.4178 11.3323 20.5686C11.3323 20.7195 11.4531 20.8417 11.6021 20.8417C11.7512 20.8417 11.872 20.7195 11.872 20.5686C11.872 20.4178 11.7512 20.2956 11.6021 20.2956Z" fill="#013399"/>
</g>
</g>
<mask id="mask13_820_16018" style="mask-type:alpha" maskUnits="userSpaceOnUse" x="0" y="0" width="34" height="35">
<path d="M17 34.9736C26.3888 34.9736 34 27.3625 34 17.9736C34 8.58479 26.3888 0.973633 17 0.973633C7.61116 0.973633 0 8.58479 0 17.9736C0 27.3625 7.61116 34.9736 17 34.9736Z" fill="white"/>
</mask>
<g mask="url(#mask13_820_16018)">
<path d="M37.9663 0.973633H-3.96699C-4.90588 0.973633 -5.66699 1.73475 -5.66699 2.67363V33.2736C-5.66699 34.2125 -4.90588 34.9736 -3.96699 34.9736H37.9663C38.9052 34.9736 39.6663 34.2125 39.6663 33.2736V2.67363C39.6663 1.73475 38.9052 0.973633 37.9663 0.973633Z" fill="black"/>
<mask id="mask14_820_16018" style="mask-type:alpha" maskUnits="userSpaceOnUse" x="-6" y="0" width="46" height="35">
<path d="M37.9663 0.973633H-3.96699C-4.90588 0.973633 -5.66699 1.73475 -5.66699 2.67363V33.2736C-5.66699 34.2125 -4.90588 34.9736 -3.96699 34.9736H37.9663C38.9052 34.9736 39.6663 34.2125 39.6663 33.2736V2.67363C39.6663 1.73475 38.9052 0.973633 37.9663 0.973633Z" fill="white"/>
</mask>
<g mask="url(#mask14_820_16018)">
<mask id="mask15_820_16018" style="mask-type:alpha" maskUnits="userSpaceOnUse" x="-6" y="0" width="46" height="35">
<path d="M39.6663 0.973633H-5.66699V34.9736H39.6663V0.973633Z" fill="white"/>
</mask>
<g mask="url(#mask15_820_16018)">
<path d="M39.6663 0.973633H-5.66699V34.9736H39.6663V0.973633Z" fill="#F7FCFF"/>
<mask id="mask16_820_16018" style="mask-type:alpha" maskUnits="userSpaceOnUse" x="-6" y="0" width="46" height="35">
<path d="M39.6663 0.973633H-5.66699V34.9736H39.6663V0.973633Z" fill="white"/>
</mask>
<g mask="url(#mask16_820_16018)">
<path d="M39.6663 0.973633H-5.66699V12.307H39.6663V0.973633Z" fill="#FF8C1A"/>
</g>
<mask id="mask17_820_16018" style="mask-type:alpha" maskUnits="userSpaceOnUse" x="-6" y="0" width="46" height="35">
<path d="M39.6663 0.973633H-5.66699V34.9736H39.6663V0.973633Z" fill="white"/>
</mask>
<g mask="url(#mask17_820_16018)">
<path d="M39.6663 23.6401H-5.66699V34.9735H39.6663V23.6401Z" fill="#5EAA22"/>
</g>
<mask id="mask18_820_16018" style="mask-type:alpha" maskUnits="userSpaceOnUse" x="-6" y="0" width="46" height="35">
<path d="M39.6663 0.973633H-5.66699V34.9736H39.6663V0.973633Z" fill="white"/>
</mask>
<g mask="url(#mask18_820_16018)">
<path d="M16.9997 22.2238C19.3469 22.2238 21.2497 20.321 21.2497 17.9738C21.2497 15.6266 19.3469 13.7238 16.9997 13.7238C14.6525 13.7238 12.7497 15.6266 12.7497 17.9738C12.7497 20.321 14.6525 22.2238 16.9997 22.2238ZM16.9997 23.6405C13.8701 23.6405 11.333 21.1034 11.333 17.9738C11.333 14.8442 13.8701 12.3071 16.9997 12.3071C20.1293 12.3071 22.6663 14.8442 22.6663 17.9738C22.6663 21.1034 20.1293 23.6405 16.9997 23.6405Z" fill="#3D58DB"/>
<path d="M16.9919 19.1929L16.1832 23.6137L16.6528 19.1442L14.6314 23.158L16.3411 19.0018L13.2708 22.2836L16.0822 18.7775L12.2116 21.0613L15.897 18.4893L11.5397 19.5901L15.8005 18.1605L11.3096 17.9892L15.8005 17.8179L11.5397 16.3883L15.897 17.4892L12.2116 14.9171L16.0822 17.201L13.2708 13.6948L16.3411 16.9766L14.6314 12.8204L16.6528 16.8343L16.1832 12.3647L16.9919 16.7855L17.8006 12.3647L17.331 16.8343L19.3524 12.8204L17.6426 16.9766L20.713 13.6948L17.9016 17.201L21.7722 14.9171L18.0868 17.4892L22.444 16.3883L18.1833 17.8179L22.6742 17.9892L18.1833 18.1605L22.444 19.5901L18.0868 18.4893L21.7722 21.0613L17.9016 18.7775L20.713 22.2836L17.6426 19.0018L19.3524 23.158L17.331 19.1442L17.8006 23.6137L16.9919 19.1929Z" fill="#3D58DB"/>
</g>
</g>
</g>
<mask id="mask19_820_16018" style="mask-type:alpha" maskUnits="userSpaceOnUse" x="-6" y="0" width="46" height="35">
<path d="M37.9663 0.973633H-3.96699C-4.90588 0.973633 -5.66699 1.73475 -5.66699 2.67363V33.2736C-5.66699 34.2125 -4.90588 34.9736 -3.96699 34.9736H37.9663C38.9052 34.9736 39.6663 34.2125 39.6663 33.2736V2.67363C39.6663 1.73475 38.9052 0.973633 37.9663 0.973633Z" fill="white"/>
</mask>
<g mask="url(#mask19_820_16018)">
<path d="M37.2577 1.68164H-3.25898C-4.19787 1.68164 -4.95898 2.44276 -4.95898 3.38164V32.565C-4.95898 33.5039 -4.19787 34.265 -3.25898 34.265H37.2577C38.1966 34.265 38.9577 33.5039 38.9577 32.565V3.38164C38.9577 2.44276 38.1966 1.68164 37.2577 1.68164Z" stroke="black" stroke-opacity="0.1"/>
</g>
</g>
</svg>
