<svg width="34" height="35" fill="none" xmlns="http://www.w3.org/2000/svg"><g clip-path="url(#a)"><mask id="b" style="mask-type:alpha" maskUnits="userSpaceOnUse" x="0" y="0" width="34" height="35"><path d="M17 34.244c9.389 0 17-7.611 17-17s-7.611-17-17-17-17 7.611-17 17 7.611 17 17 17z" fill="#fff"/></mask><g mask="url(#b)"><mask id="c" style="mask-type:alpha" maskUnits="userSpaceOnUse" x="-6" y="0" width="46" height="35"><path d="M39.1.244H-5.95v34H39.1v-34z" fill="#fff"/></mask><g mask="url(#c)"><path fill-rule="evenodd" clip-rule="evenodd" d="M-5.95.244H39.1v34H-5.95v-34z" fill="#F7FCFF"/><path d="M39.1 21.022H-5.95v2.833H39.1v-2.833zM39.1 26.216H-5.95v2.834H39.1v-2.834zM39.1 10.633H-5.95v2.833H39.1v-2.833zM39.1 31.41H-5.95v2.834H39.1v-2.833zM39.1 15.828H-5.95v2.833H39.1v-2.833zM39.1.244H-5.95v2.833H39.1V.244zM39.1 5.438H-5.95v2.834H39.1V5.438z" fill="#E31D1C"/><path d="M22.206.244H-5.95v18.417h28.156V.244z" fill="#2E42A5"/><path fill-rule="evenodd" clip-rule="evenodd" d="m-3.527 13.319.466 1.047h1.01l-.793.813.307 1.283-.989-.721-1.022.72.345-1.282-.907-.813h1.185l.398-1.047zm5.631 0 .466 1.047h1.01l-.793.813.307 1.283-.989-.721-1.021.72.345-1.282-.908-.813h1.185l.398-1.047zm5.631 0 .466 1.047h1.011l-.794.813.307 1.283-.988-.721-1.022.72.345-1.282-.908-.813h1.186l.397-1.047zm5.631 0 .467 1.047h1.01l-.794.813.308 1.283-.99-.721-1.021.72.345-1.282-.908-.813h1.186l.398-1.047zm5.632 0 .466 1.047h1.01l-.794.813.308 1.283-.989-.721-1.022.72.345-1.282-.907-.813H18.6l.398-1.047zm-19.71-2.834.467 1.047h1.01l-.794.813.308 1.283-.99-.72-1.021.72.345-1.283-.908-.813h1.186l.397-1.047zm5.632 0 .466 1.047h1.01l-.794.813.308 1.283-.989-.72-1.022.72.345-1.283-.907-.813h1.185l.398-1.047zm5.63 0 .467 1.047h1.01l-.793.813.307 1.283-.989-.72-1.022.72.345-1.283-.907-.813h1.185l.398-1.047zm5.632 0 .466 1.047h1.011l-.794.813.307 1.283-.988-.72-1.022.72.345-1.283-.908-.813h1.185l.398-1.047zM7.735 7.652l.466 1.047h1.011l-.794.813.307 1.283-.988-.72-1.022.72.345-1.283-.908-.813h1.186l.397-1.047zm5.631 0 .467 1.047h1.01l-.794.813.308 1.283-.99-.72-1.021.72.345-1.283-.908-.813h1.186l.398-1.047zm-16.893 0 .466 1.047h1.01l-.793.813.307 1.283-.989-.72-1.022.72.345-1.283-.907-.813h1.185l.398-1.047zm5.631 0 .466 1.047h1.01l-.793.813.307 1.283-.989-.72-1.021.72.345-1.283L.52 8.7h1.185l.398-1.047zm16.894 0 .466 1.047h1.01l-.794.813.308 1.283-.989-.72-1.022.72.345-1.283-.907-.813H18.6l.398-1.047zM-.712 4.819l.467 1.047h1.01l-.794.813.308 1.283-.99-.721-1.021.72.345-1.282-.908-.813h1.186l.397-1.047zm5.632 0 .466 1.047h1.01l-.794.813.308 1.283-.989-.721-1.022.72.345-1.282-.907-.813h1.185l.398-1.047zm5.63 0 .467 1.047h1.01l-.793.813.307 1.283-.989-.721-1.022.72.345-1.282-.907-.813h1.185l.398-1.047zm5.632 0 .466 1.047h1.011l-.794.813.307 1.283-.988-.721-1.022.72.345-1.282-.908-.813h1.185l.398-1.047zm-19.71-2.834.467 1.047h1.01l-.793.813.307 1.283-.989-.72-1.022.72.345-1.283-.907-.813h1.185l.398-1.047zm5.632 0 .466 1.047h1.01l-.793.813.307 1.283-.989-.72-1.021.72.345-1.283-.908-.813h1.185l.398-1.047zm5.631 0 .466 1.047h1.011l-.794.813.307 1.283-.988-.72-1.022.72.345-1.283-.908-.813h1.186l.397-1.047zm5.631 0 .467 1.047h1.01l-.794.813.308 1.283-.99-.72-1.021.72.345-1.283-.908-.813h1.186l.398-1.047zm5.632 0 .466 1.047h1.01l-.794.813.308 1.283-.989-.72-1.022.72.345-1.283-.907-.813H18.6l.398-1.047z" fill="#F7FCFF"/></g></g></g><defs><clipPath id="a"><path fill="#fff" transform="translate(0 .244)" d="M0 0h34v34H0z"/></clipPath></defs></svg>